<svg width="24" height="24" viewBox="0 0 24 24" fill="none" xmlns="http://www.w3.org/2000/svg">
<path d="M21.796 7.54597L9.79596 19.546C9.69144 19.6509 9.56725 19.7341 9.4305 19.7909C9.29376 19.8476 9.14715 19.8769 8.99908 19.8769C8.85102 19.8769 8.70441 19.8476 8.56766 19.7909C8.43092 19.7341 8.30672 19.6509 8.20221 19.546L2.95221 14.296C2.84756 14.1913 2.76455 14.0671 2.70792 13.9304C2.65128 13.7936 2.62213 13.6471 2.62213 13.4991C2.62213 13.3511 2.65128 13.2046 2.70792 13.0678C2.76455 12.9311 2.84756 12.8069 2.95221 12.7022C3.05685 12.5976 3.18109 12.5146 3.31782 12.4579C3.45455 12.4013 3.60109 12.3721 3.74908 12.3721C3.89708 12.3721 4.04362 12.4013 4.18035 12.4579C4.31708 12.5146 4.44131 12.5976 4.54596 12.7022L9.00002 17.1563L20.2041 5.9541C20.4154 5.74276 20.7021 5.62402 21.001 5.62402C21.2998 5.62402 21.5865 5.74276 21.7978 5.9541C22.0092 6.16544 22.1279 6.45209 22.1279 6.75098C22.1279 7.04986 22.0092 7.33651 21.7978 7.54785L21.796 7.54597Z" fill="#98E31E"/>
</svg>
