<svg viewBox="0 0 24 25" fill="none" xmlns="http://www.w3.org/2000/svg" fill="currentColor">
<path d="M19.2806 18.7198C19.3502 18.7895 19.4055 18.8722 19.4432 18.9632C19.4809 19.0543 19.5003 19.1519 19.5003 19.2504C19.5003 19.349 19.4809 19.4465 19.4432 19.5376C19.4055 19.6286 19.3502 19.7114 19.2806 19.781C19.2109 19.8507 19.1281 19.906 19.0371 19.9437C18.9461 19.9814 18.8485 20.0008 18.7499 20.0008C18.6514 20.0008 18.5538 19.9814 18.4628 19.9437C18.3717 19.906 18.289 19.8507 18.2193 19.781L11.9999 13.5607L5.78055 19.781C5.63982 19.9218 5.44895 20.0008 5.24993 20.0008C5.05091 20.0008 4.86003 19.9218 4.7193 19.781C4.57857 19.6403 4.49951 19.4494 4.49951 19.2504C4.49951 19.0514 4.57857 18.8605 4.7193 18.7198L10.9396 12.5004L4.7193 6.28104C4.57857 6.14031 4.49951 5.94944 4.49951 5.75042C4.49951 5.55139 4.57857 5.36052 4.7193 5.21979C4.86003 5.07906 5.05091 5 5.24993 5C5.44895 5 5.63982 5.07906 5.78055 5.21979L11.9999 11.4401L18.2193 5.21979C18.36 5.07906 18.5509 5 18.7499 5C18.949 5 19.1398 5.07906 19.2806 5.21979C19.4213 5.36052 19.5003 5.55139 19.5003 5.75042C19.5003 5.94944 19.4213 6.14031 19.2806 6.28104L13.0602 12.5004L19.2806 18.7198Z" />
</svg>
