<svg width="17" height="17" viewBox="0 0 17 17" fill="currentcolor" xmlns="http://www.w3.org/2000/svg">
<path d="M8.5 5.5C7.90666 5.5 7.32664 5.67595 6.83329 6.00559C6.33994 6.33523 5.95543 6.80377 5.72836 7.35195C5.5013 7.90013 5.44189 8.50333 5.55765 9.08527C5.6734 9.66721 5.95912 10.2018 6.37868 10.6213C6.79824 11.0409 7.33279 11.3266 7.91473 11.4424C8.49667 11.5581 9.09987 11.4987 9.64805 11.2716C10.1962 11.0446 10.6648 10.6601 10.9944 10.1667C11.3241 9.67336 11.5 9.09334 11.5 8.5C11.4992 7.7046 11.1828 6.94202 10.6204 6.37959C10.058 5.81716 9.2954 5.50083 8.5 5.5ZM8.5 10.5C8.10444 10.5 7.71776 10.3827 7.38886 10.1629C7.05996 9.94317 6.80362 9.63082 6.65224 9.26536C6.50087 8.89991 6.46126 8.49778 6.53843 8.10982C6.6156 7.72186 6.80608 7.36549 7.08579 7.08578C7.36549 6.80608 7.72186 6.6156 8.10982 6.53843C8.49778 6.46126 8.89992 6.50086 9.26537 6.65224C9.63082 6.80361 9.94318 7.05996 10.1629 7.38886C10.3827 7.71776 10.5 8.10444 10.5 8.5C10.5 9.03043 10.2893 9.53914 9.91422 9.91421C9.53914 10.2893 9.03044 10.5 8.5 10.5ZM14 8.635C14.0025 8.545 14.0025 8.455 14 8.365L14.9325 7.2C14.9814 7.13883 15.0152 7.06703 15.0313 6.99039C15.0474 6.91375 15.0452 6.8344 15.025 6.75875C14.8721 6.18412 14.6435 5.6324 14.345 5.11812C14.3059 5.05082 14.2517 4.99357 14.1866 4.95093C14.1215 4.90829 14.0473 4.88143 13.97 4.8725L12.4875 4.7075C12.4258 4.6425 12.3633 4.58 12.3 4.52L12.125 3.03375C12.116 2.95638 12.089 2.88219 12.0463 2.81708C12.0035 2.75197 11.9462 2.69775 11.8788 2.65875C11.3643 2.36084 10.8126 2.13239 10.2381 1.97937C10.1624 1.95925 10.0831 1.95719 10.0064 1.97336C9.92976 1.98954 9.85799 2.0235 9.79688 2.0725L8.635 3C8.545 3 8.455 3 8.365 3L7.2 2.06937C7.13883 2.02048 7.06704 1.98663 6.99039 1.97057C6.91375 1.9545 6.83441 1.95666 6.75875 1.97687C6.18422 2.13001 5.63254 2.35867 5.11813 2.65687C5.05083 2.69595 4.99358 2.7502 4.95093 2.8153C4.90829 2.88041 4.88143 2.95456 4.8725 3.03187L4.7075 4.51687C4.6425 4.57896 4.58 4.64146 4.52 4.70437L3.03375 4.875C2.95638 4.884 2.88219 4.91095 2.81708 4.9537C2.75198 4.99646 2.69776 5.05383 2.65875 5.12125C2.36084 5.63573 2.1324 6.1874 1.97938 6.76187C1.95925 6.83758 1.95719 6.91695 1.97337 6.99359C1.98954 7.07024 2.0235 7.14201 2.0725 7.20312L3 8.365C3 8.455 3 8.545 3 8.635L2.06938 9.8C2.02048 9.86117 1.98664 9.93296 1.97057 10.0096C1.9545 10.0862 1.95666 10.1656 1.97688 10.2412C2.12975 10.8159 2.35842 11.3676 2.65688 11.8819C2.69596 11.9492 2.75021 12.0064 2.81531 12.0491C2.88041 12.0917 2.95457 12.1186 3.03188 12.1275L4.51438 12.2925C4.57646 12.3575 4.63896 12.42 4.70188 12.48L4.875 13.9662C4.884 14.0436 4.91095 14.1178 4.95371 14.1829C4.99646 14.248 5.05383 14.3022 5.12125 14.3412C5.63573 14.6392 6.1874 14.8676 6.76188 15.0206C6.83758 15.0408 6.91695 15.0428 6.9936 15.0266C7.07024 15.0105 7.14201 14.9765 7.20313 14.9275L8.365 14C8.455 14.0025 8.545 14.0025 8.635 14L9.8 14.9325C9.86117 14.9814 9.93297 15.0152 10.0096 15.0313C10.0863 15.0474 10.1656 15.0452 10.2413 15.025C10.8159 14.8721 11.3676 14.6435 11.8819 14.345C11.9492 14.3059 12.0064 14.2517 12.0491 14.1866C12.0917 14.1215 12.1186 14.0473 12.1275 13.97L12.2925 12.4875C12.3575 12.4258 12.42 12.3633 12.48 12.3L13.9663 12.125C14.0436 12.116 14.1178 12.089 14.1829 12.0463C14.248 12.0035 14.3022 11.9462 14.3413 11.8787C14.6392 11.3643 14.8676 10.8126 15.0206 10.2381C15.0408 10.1624 15.0428 10.083 15.0266 10.0064C15.0105 9.92976 14.9765 9.85799 14.9275 9.79687L14 8.635ZM12.9938 8.22875C13.0044 8.40943 13.0044 8.59057 12.9938 8.77125C12.9863 8.89495 13.0251 9.017 13.1025 9.11375L13.9894 10.2219C13.8876 10.5453 13.7573 10.859 13.6 11.1594L12.1875 11.3194C12.0645 11.333 11.9509 11.3918 11.8688 11.4844C11.7484 11.6197 11.6203 11.7478 11.485 11.8681C11.3924 11.9503 11.3337 12.0639 11.32 12.1869L11.1631 13.5981C10.8628 13.7555 10.5491 13.8858 10.2256 13.9875L9.11688 13.1006C9.02815 13.0297 8.91794 12.9912 8.80438 12.9912H8.77438C8.5937 13.0019 8.41255 13.0019 8.23188 12.9912C8.10818 12.9838 7.98612 13.0226 7.88938 13.1L6.77813 13.9875C6.45471 13.8857 6.14098 13.7554 5.84063 13.5981L5.68063 12.1875C5.66697 12.0645 5.60818 11.9509 5.51563 11.8687C5.38032 11.7484 5.25218 11.6203 5.13188 11.485C5.04971 11.3924 4.93614 11.3337 4.81313 11.32L3.40188 11.1625C3.2445 10.8622 3.11419 10.5484 3.0125 10.225L3.89938 9.11625C3.97682 9.0195 4.01557 8.89745 4.00813 8.77375C3.9975 8.59307 3.9975 8.41193 4.00813 8.23125C4.01557 8.10755 3.97682 7.98549 3.89938 7.88875L3.0125 6.77812C3.11427 6.45471 3.24457 6.14097 3.40188 5.84062L4.8125 5.68062C4.93551 5.66697 5.04908 5.60818 5.13125 5.51562C5.25156 5.38032 5.37969 5.25218 5.515 5.13187C5.60792 5.04965 5.66696 4.93582 5.68063 4.8125L5.8375 3.40187C6.13782 3.24449 6.45156 3.11419 6.775 3.0125L7.88375 3.89937C7.9805 3.97681 8.10255 4.01557 8.22625 4.00812C8.40693 3.9975 8.58807 3.9975 8.76875 4.00812C8.89245 4.01557 9.01451 3.97681 9.11125 3.89937L10.2219 3.0125C10.5453 3.11426 10.859 3.24457 11.1594 3.40187L11.3194 4.8125C11.333 4.93551 11.3918 5.04908 11.4844 5.13125C11.6197 5.25155 11.7478 5.37969 11.8681 5.515C11.9503 5.60755 12.0639 5.66634 12.1869 5.68L13.5981 5.83687C13.7555 6.13719 13.8858 6.45093 13.9875 6.77437L13.1006 7.88312C13.0224 7.98068 12.9836 8.104 12.9919 8.22875H12.9938Z" />
</svg>
