<svg width="67" height="66" viewBox="0 0 67 66" fill="none" xmlns="http://www.w3.org/2000/svg">
<g filter="url(#filter0_f_516_9915)">
<path d="M39.8868 34.7808C38.8208 38.4853 34.9315 40.694 31.1864 39.6905C27.4413 38.687 25.289 34.8594 26.355 31.155C27.421 27.4506 31.3103 25.2418 35.0554 26.2453C38.8005 27.2488 40.9528 31.0764 39.8868 34.7808Z" stroke="#1DFF29" stroke-width="2"/>
</g>
<g filter="url(#filter1_f_516_9915)">
<path d="M39.8868 34.7808C38.8208 38.4853 34.9315 40.694 31.1864 39.6905C27.4413 38.687 25.289 34.8594 26.355 31.155C27.421 27.4506 31.3103 25.2418 35.0554 26.2453C38.8005 27.2488 40.9528 31.0764 39.8868 34.7808Z" stroke="#1DFF29" stroke-width="2"/>
</g>
<g filter="url(#filter2_f_516_9915)">
<path d="M39.8868 34.7808C38.8208 38.4853 34.9315 40.694 31.1864 39.6905C27.4413 38.687 25.289 34.8594 26.355 31.155C27.421 27.4506 31.3103 25.2418 35.0554 26.2453C38.8005 27.2488 40.9528 31.0764 39.8868 34.7808Z" stroke="#1DFF29" stroke-width="2"/>
</g>
<g filter="url(#filter3_f_516_9915)">
<path d="M40.3676 34.9097C39.2236 38.8849 35.0539 41.2467 31.0475 40.1732C27.0411 39.0997 24.7303 35.0014 25.8742 31.0262C27.0181 27.051 31.1879 24.6891 35.1943 25.7626C39.2007 26.8361 41.5115 30.9345 40.3676 34.9097Z" stroke="#1DFF29"/>
</g>
<g style="mix-blend-mode:color-dodge">
<path d="M40.3676 34.9097C39.2236 38.8849 35.0539 41.2467 31.0475 40.1732C27.0411 39.0997 24.7303 35.0014 25.8742 31.0262C27.0181 27.051 31.1879 24.6891 35.1943 25.7626C39.2007 26.8361 41.5115 30.9345 40.3676 34.9097Z" stroke="#1DFF29"/>
</g>
<g filter="url(#filter4_f_516_9915)">
<mask id="path-6-inside-1_516_9915" fill="white">
<path d="M35.0556 34.0967C35.0556 33.0886 34.4507 32.743 33.241 32.599C32.3768 32.4838 32.204 32.2534 32.204 31.8501C32.204 31.4468 32.4921 31.1876 33.0681 31.1876C33.5866 31.1876 33.8747 31.3604 34.0187 31.7925C34.0475 31.8789 34.1339 31.9365 34.2203 31.9365L34.6811 31.9365C34.7963 31.9365 34.8828 31.8501 34.8828 31.7349L34.8828 31.7061C34.7675 31.0724 34.2491 30.5827 33.5866 30.5251L33.5866 29.8339C33.5866 29.7186 33.5002 29.6322 33.3562 29.6034L32.9241 29.6034C32.8089 29.6034 32.7225 29.6898 32.6937 29.8339L32.6937 30.4963C31.8296 30.6116 31.2823 31.1876 31.2823 31.9077C31.2823 32.8582 31.8584 33.2326 33.0681 33.3767C33.8747 33.5207 34.1339 33.6935 34.1339 34.1544C34.1339 34.6153 33.7306 34.9321 33.1834 34.9321C32.4344 34.9321 32.1752 34.6152 32.0888 34.1831C32.06 34.068 31.9736 34.0103 31.8872 34.0103L31.3975 34.0103C31.2823 34.0103 31.1959 34.0967 31.1959 34.212L31.1959 34.2408C31.3111 34.9608 31.772 35.4793 32.7225 35.6234L32.7225 36.3147C32.7225 36.4298 32.8089 36.5162 32.9529 36.5451L33.3849 36.5451C33.5002 36.5451 33.5866 36.4586 33.6154 36.3147L33.6154 35.6234C34.4795 35.4793 35.0556 34.8744 35.0556 34.0967Z"/>
<path d="M31.6857 37.1211C29.439 36.3147 28.2868 33.8088 29.1222 31.5908C29.5542 30.3811 30.5047 29.4594 31.6857 29.0273C31.8009 28.9698 31.8585 28.8833 31.8585 28.7393L31.8585 28.3361C31.8585 28.2208 31.8009 28.1344 31.6857 28.1057C31.6568 28.1057 31.5993 28.1057 31.5704 28.1344C28.8341 28.9985 27.3363 31.9077 28.2004 34.644C28.7189 36.257 29.9575 37.4956 31.5704 38.014C31.6857 38.0716 31.8009 38.014 31.8297 37.8988C31.8585 37.87 31.8585 37.8412 31.8585 37.7836L31.8585 37.3803C31.8585 37.2939 31.7721 37.1788 31.6857 37.1211ZM34.7389 28.1344C34.6236 28.0768 34.5084 28.1344 34.4796 28.2496C34.4508 28.2785 34.4508 28.3072 34.4508 28.3649L34.4508 28.7681C34.4508 28.8833 34.5372 28.9985 34.6236 29.0562C36.8703 29.8626 38.0225 32.3685 37.1871 34.5864C36.7551 35.7962 35.8046 36.7179 34.6236 37.1499C34.5084 37.2075 34.4508 37.2939 34.4508 37.438L34.4508 37.8412C34.4508 37.9565 34.5084 38.0429 34.6236 38.0716C34.6525 38.0716 34.71 38.0716 34.7389 38.0429C37.4752 37.1788 38.973 34.2696 38.1089 31.5332C37.5904 29.8914 36.323 28.6529 34.7389 28.1344Z"/>
</mask>
<path d="M35.0556 34.0967L33.0476 34.1062L35.0556 34.0967ZM33.241 32.599L32.9641 34.5728L32.9782 34.5747L32.9924 34.5763L33.241 32.599ZM33.0681 31.1876L33.0777 29.1961L33.0681 31.1876ZM34.0187 31.7925L32.1119 32.4256L32.112 32.4261L34.0187 31.7925ZM34.2203 31.9365L34.2108 33.928L34.2108 33.928L34.2203 31.9365ZM34.6811 31.9365L34.6906 29.945L34.6906 29.945L34.6811 31.9365ZM34.8828 31.7349L32.8748 31.7443L32.8748 31.7443L34.8828 31.7349ZM34.8828 31.7061L36.8907 31.6966L36.8907 31.5186L36.8589 31.3436L34.8828 31.7061ZM33.5866 30.5251L31.5786 30.5346L31.5786 32.3506L33.4019 32.5091L33.5866 30.5251ZM33.5866 29.8339L31.5786 29.8433L31.5786 29.8433L33.5866 29.8339ZM33.3562 29.6034L33.7624 27.6512L33.5661 27.6119L33.3657 27.6119L33.3562 29.6034ZM32.9241 29.6034L32.9146 31.5949L32.9146 31.5949L32.9241 29.6034ZM32.6937 29.8339L30.7242 29.4551L30.6857 29.6474L30.6857 29.8433L32.6937 29.8339ZM32.6937 30.4963L32.952 32.4701L34.7016 32.2367L34.7016 30.4869L32.6937 30.4963ZM31.2823 31.9077L29.2744 31.9172L31.2823 31.9077ZM33.0681 33.3767L33.4329 31.4166L33.3751 31.4063L33.3168 31.3994L33.0681 33.3767ZM33.1834 34.9321L33.1738 36.9236L33.1834 34.9321ZM32.0888 34.1831L34.0584 33.7867L34.0493 33.741L34.038 33.6958L32.0888 34.1831ZM31.8872 34.0103L31.8967 32.0188L31.8967 32.0188L31.8872 34.0103ZM31.3975 34.0103L31.388 36.0018L31.388 36.0018L31.3975 34.0103ZM31.1959 34.212L29.188 34.2214L29.188 34.2214L31.1959 34.212ZM31.1959 34.2408L29.188 34.2502L29.188 34.4071L29.2127 34.5619L31.1959 34.2408ZM32.7225 35.6234L34.7304 35.6139L34.7304 33.9116L33.035 33.6547L32.7225 35.6234ZM32.7225 36.3147L34.7304 36.3052L34.7304 36.3052L32.7225 36.3147ZM32.9529 36.5451L32.5467 38.4973L32.7429 38.5366L32.9434 38.5366L32.9529 36.5451ZM33.3849 36.5451L33.3945 34.5535L33.3945 34.5535L33.3849 36.5451ZM33.6154 36.3147L35.5849 36.6936L35.6234 36.5012L35.6234 36.3052L33.6154 36.3147ZM33.6154 35.6234L33.2917 33.6594L31.6075 33.9402L31.6075 35.6328L33.6154 35.6234ZM31.6857 37.1211L32.8119 35.467L32.608 35.3311L32.3769 35.2481L31.6857 37.1211ZM29.1222 31.5908L31.0028 32.28L31.0088 32.264L31.0145 32.2479L29.1222 31.5908ZM31.6857 29.0273L32.3727 30.8954L32.4801 30.8561L32.5823 30.805L31.6857 29.0273ZM31.8585 28.7393L29.8505 28.7487L29.8505 28.7487L31.8585 28.7393ZM31.8585 28.3361L33.8664 28.3266L33.8664 28.3266L31.8585 28.3361ZM31.6857 28.1057L32.1843 26.1742L31.9436 26.1141L31.6952 26.1141L31.6857 28.1057ZM31.5704 28.1344L32.1714 30.0318L32.6423 29.8831L32.991 29.5352L31.5704 28.1344ZM28.2004 34.644L26.284 35.2475L26.2871 35.2571L28.2004 34.644ZM31.5704 38.014L32.4807 36.2346L32.3437 36.1662L32.1977 36.1193L31.5704 38.014ZM31.8297 37.8988L30.4091 36.4981L30.0148 36.8913L29.8807 37.429L31.8297 37.8988ZM31.8585 37.7836L29.8505 37.7931L31.8585 37.7836ZM31.8585 37.3803L33.8664 37.3709L33.8664 37.3709L31.8585 37.3803ZM34.7389 28.1344L33.8286 29.9138L33.9608 29.9799L34.1015 30.0259L34.7389 28.1344ZM34.4796 28.2496L35.902 29.6487L36.2948 29.2559L36.4286 28.7195L34.4796 28.2496ZM34.4508 28.3649L36.4588 28.3554L36.4588 28.3554L34.4508 28.3649ZM34.4508 28.7681L32.4429 28.7776L32.4429 28.7776L34.4508 28.7681ZM34.6236 29.0562L33.4974 30.7102L33.7013 30.8462L33.9324 30.9292L34.6236 29.0562ZM37.1871 34.5864L35.3065 33.8973L35.3005 33.9133L35.2948 33.9294L37.1871 34.5864ZM34.6236 37.1499L33.9366 35.2819L33.8292 35.3212L33.727 35.3723L34.6236 37.1499ZM34.4508 37.438L36.4588 37.4285L36.4588 37.4285L34.4508 37.438ZM34.4508 37.8412L32.4429 37.8507L32.4429 37.8507L34.4508 37.8412ZM34.6236 38.0716L34.125 40.0031L34.3657 40.0631L34.6141 40.0631L34.6236 38.0716ZM34.7389 38.0429L34.1379 36.1455L33.667 36.2942L33.3183 36.6421L34.7389 38.0429ZM38.1089 31.5332L36.1925 32.1367L36.1925 32.1367L38.1089 31.5332ZM37.0635 34.0873C37.0635 33.1389 36.7471 32.1412 35.8299 31.4424C35.0759 30.8679 34.1572 30.7011 33.4895 30.6217L32.9924 34.5763C33.2296 34.6046 33.3683 34.6353 33.4424 34.6576C33.5157 34.6797 33.4675 34.6765 33.374 34.6053C33.3247 34.5677 33.2689 34.5158 33.2157 34.4483C33.1623 34.3805 33.122 34.3101 33.0937 34.2441C33.0381 34.1144 33.0476 34.0463 33.0476 34.1062L37.0635 34.0873ZM33.5178 30.6252C33.3706 30.6056 33.3246 30.5898 33.3396 30.5946C33.3533 30.599 33.497 30.6452 33.6726 30.7873C33.8732 30.9498 34.0357 31.1729 34.1295 31.4259C34.2114 31.6468 34.212 31.814 34.212 31.8406L30.1961 31.8595C30.1961 32.3686 30.3226 33.2288 31.1243 33.8778C31.7326 34.3702 32.4757 34.5076 32.9641 34.5728L33.5178 30.6252ZM34.212 31.8406C34.212 32.1473 34.078 32.594 33.6761 32.9154C33.5052 33.0522 33.3419 33.1183 33.2331 33.1491C33.127 33.1792 33.062 33.1791 33.0586 33.1791L33.0777 29.1961C32.5201 29.1961 31.7916 29.3177 31.164 29.8197C30.4741 30.3716 30.1961 31.1495 30.1961 31.8595L34.212 31.8406ZM33.0586 33.1791C33.1196 33.1791 32.8934 33.1939 32.604 33.0121C32.2725 32.804 32.1444 32.5231 32.1119 32.4256L35.9254 31.1594C35.7489 30.6298 35.4048 30.0465 34.7636 29.6439C34.1646 29.2678 33.5352 29.1961 33.0777 29.1961L33.0586 33.1791ZM32.112 32.4261C32.4224 33.3565 33.2969 33.928 34.2108 33.928L34.2298 29.945C34.9709 29.945 35.6725 30.4013 35.9253 31.1588L32.112 32.4261ZM34.2108 33.928L34.6716 33.928L34.6906 29.945L34.2298 29.945L34.2108 33.928ZM34.6716 33.928C35.9147 33.928 36.8907 32.9291 36.8907 31.7254L32.8748 31.7443C32.8748 30.7711 33.678 29.945 34.6906 29.945L34.6716 33.928ZM36.8907 31.7255L36.8907 31.6966L32.8748 31.7155L32.8748 31.7443L36.8907 31.7255ZM36.8589 31.3436C36.5887 29.8576 35.3604 28.6793 33.7713 28.5412L33.4019 32.5091C33.1378 32.4861 32.9464 32.2871 32.9066 32.0686L36.8589 31.3436ZM35.5945 30.5157L35.5945 29.8244L31.5786 29.8433L31.5786 30.5346L35.5945 30.5157ZM35.5945 29.8244C35.5945 28.4578 34.4985 27.7985 33.7624 27.6512L32.95 31.5556C32.7299 31.5116 32.3972 31.3928 32.0963 31.0919C31.7711 30.7666 31.5786 30.3179 31.5786 29.8433L35.5945 29.8244ZM33.3657 27.6119L32.9337 27.6119L32.9146 31.5949L33.3467 31.5949L33.3657 27.6119ZM32.9337 27.6119C31.5247 27.6119 30.8672 28.7406 30.7242 29.4551L34.6631 30.2126C34.6205 30.4257 34.5038 30.7587 34.1988 31.0636C33.8671 31.3954 33.4049 31.5949 32.9146 31.5949L32.9337 27.6119ZM30.6857 29.8433L30.6857 30.5058L34.7016 30.4869L34.7016 29.8244L30.6857 29.8433ZM32.4354 28.5226C30.7724 28.7444 29.2744 30.0067 29.2744 31.9172L33.2903 31.8983C33.2903 32.0628 33.2186 32.24 33.0967 32.3638C32.9843 32.4778 32.9021 32.4767 32.952 32.4701L32.4354 28.5226ZM29.2744 31.9172C29.2744 32.8418 29.5858 33.8177 30.4752 34.5119C31.2179 35.0916 32.1258 35.2714 32.8194 35.354L33.3168 31.3994C33.0892 31.3723 32.9581 31.3415 32.8918 31.3208C32.8265 31.3003 32.8758 31.3054 32.9679 31.3773C33.0161 31.4149 33.0701 31.4663 33.1216 31.5327C33.1734 31.5993 33.213 31.6688 33.2412 31.735C33.2971 31.8661 33.2903 31.9406 33.2903 31.8983L29.2744 31.9172ZM32.7033 35.3368C32.8646 35.3656 32.936 35.3853 32.9554 35.3914C32.9793 35.399 32.8712 35.3696 32.7216 35.2623C32.5455 35.1359 32.3614 34.9369 32.242 34.6674C32.1333 34.4223 32.1259 34.2254 32.1259 34.1638L36.1418 34.1449C36.1418 33.8529 36.102 33.4617 35.9196 33.05C35.7263 32.614 35.4271 32.2763 35.0853 32.0311C34.5139 31.6213 33.8317 31.4878 33.4329 31.4166L32.7033 35.3368ZM32.1259 34.1638C32.1259 33.768 32.3189 33.4017 32.5996 33.1748C32.8518 32.9709 33.0885 32.9406 33.1929 32.9406L33.1738 36.9236C34.4278 36.9236 36.1418 36.0731 36.1418 34.1449L32.1259 34.1638ZM33.1929 32.9406C33.0816 32.9406 33.3329 32.9153 33.6406 33.1575C33.9675 33.4149 34.0464 33.7266 34.0584 33.7867L30.1191 34.5795C30.2176 35.0717 30.4693 35.7579 31.1347 36.2817C31.7808 36.7904 32.5362 36.9236 33.1738 36.9236L33.1929 32.9406ZM34.038 33.6958C33.801 32.7465 32.9542 32.0188 31.8967 32.0188L31.8777 36.0018C30.9931 36.0018 30.3191 35.3894 30.1396 34.6705L34.038 33.6958ZM31.8967 32.0188L31.407 32.0188L31.388 36.0018L31.8777 36.0018L31.8967 32.0188ZM31.407 32.0188C30.1631 32.0188 29.188 33.0186 29.188 34.2214L33.2039 34.2025C33.2039 35.1748 32.4016 36.0018 31.388 36.0018L31.407 32.0188ZM29.188 34.2214L29.188 34.2502L33.2039 34.2314L33.2039 34.2025L29.188 34.2214ZM29.2127 34.5619C29.3249 35.2634 29.6315 35.9945 30.2485 36.5847C30.8599 37.1695 31.6268 37.4734 32.41 37.5921L33.035 33.6547C32.9497 33.6417 32.9223 33.6274 32.9335 33.6325C32.9477 33.6388 32.9915 33.6618 33.0434 33.7114C33.0958 33.7616 33.1338 33.8173 33.1574 33.8656C33.1796 33.911 33.1814 33.934 33.1791 33.9197L29.2127 34.5619ZM30.7145 35.6328L30.7145 36.3241L34.7304 36.3052L34.7304 35.6139L30.7145 35.6328ZM30.7145 36.3241C30.7145 37.691 31.811 38.35 32.5467 38.4973L33.3591 34.5928C33.5791 34.6369 33.9118 34.7556 34.2127 35.0564C34.5378 35.3815 34.7304 35.8303 34.7304 36.3052L30.7145 36.3241ZM32.9434 38.5366L33.3754 38.5366L33.3945 34.5535L32.9624 34.5535L32.9434 38.5366ZM33.3754 38.5366C34.7841 38.5366 35.4418 37.4082 35.5849 36.6936L31.646 35.9357C31.6887 35.7225 31.8055 35.3895 32.1104 35.0847C32.4421 34.753 32.9042 34.5535 33.3945 34.5535L33.3754 38.5366ZM35.6234 36.3052L35.6234 35.6139L31.6075 35.6328L31.6075 36.3241L35.6234 36.3052ZM33.9391 37.5873C35.5913 37.3119 37.0635 36.0142 37.0635 34.0873L33.0476 34.1062C33.0476 34.0539 33.0579 33.9866 33.0868 33.9146C33.1155 33.8431 33.1558 33.7836 33.1982 33.7387C33.2847 33.6473 33.3433 33.6508 33.2917 33.6594L33.9391 37.5873ZM32.3769 35.2481C31.1816 34.819 30.5559 33.4664 31.0028 32.28L27.2416 30.9017C26.0177 34.1511 27.6964 37.8103 30.9944 38.9941L32.3769 35.2481ZM31.0145 32.2479C31.2399 31.617 31.7365 31.1282 32.3727 30.8954L30.9986 27.1593C29.273 27.7906 27.8686 29.1452 27.2298 30.9338L31.0145 32.2479ZM32.5823 30.805C32.8867 30.6529 33.2561 30.3892 33.528 29.9473C33.7975 29.5092 33.8664 29.0663 33.8664 28.7298L29.8505 28.7487C29.8505 28.5564 29.8907 28.2287 30.1026 27.8842C30.3169 27.5359 30.5999 27.3442 30.789 27.2497L32.5823 30.805ZM33.8664 28.7298L33.8664 28.3266L29.8505 28.3455L29.8505 28.7487L33.8664 28.7298ZM33.8664 28.3266C33.8664 27.9431 33.7687 27.4625 33.4457 27.0184C33.1113 26.5585 32.6445 26.289 32.1843 26.1742L31.187 30.0371C30.8421 29.951 30.4617 29.7391 30.1849 29.3585C29.9195 28.9936 29.8505 28.6138 29.8505 28.3455L33.8664 28.3266ZM31.6952 26.1141C31.6926 26.1141 31.5135 26.1105 31.305 26.1452C31.1422 26.1723 30.6118 26.2728 30.1498 26.7337L32.991 29.5352C32.7619 29.7638 32.5223 29.8899 32.3535 29.9588C32.1848 30.0277 32.0407 30.0584 31.9511 30.0733C31.7858 30.1008 31.65 30.0972 31.6761 30.0972L31.6952 26.1141ZM30.9695 26.237C27.1497 27.4433 25.0973 31.4895 26.284 35.2475L30.1168 34.0406C29.5754 32.3259 30.5186 30.5537 32.1714 30.0318L30.9695 26.237ZM26.2871 35.2571C26.9995 37.4734 28.7131 39.192 30.9432 39.9088L32.1977 36.1193C31.2018 35.7991 30.4383 35.0406 30.1138 34.031L26.2871 35.2571ZM30.6602 39.7934C31.2159 40.0711 31.9193 40.1276 32.5725 39.8261C33.2159 39.5292 33.6291 38.9678 33.7787 38.3686L29.8807 37.429C30.0014 36.945 30.3427 36.47 30.8925 36.2163C31.4521 35.9581 32.0402 36.0145 32.4807 36.2346L30.6602 39.7934ZM33.2503 39.2995C33.5557 38.9948 33.7463 38.6206 33.8243 38.231C33.8548 38.0786 33.8619 37.9537 33.8644 37.8915C33.8668 37.8327 33.8664 37.7774 33.8664 37.7742L29.8505 37.7931C29.8505 37.8187 29.8502 37.7886 29.8517 37.7523C29.8533 37.7126 29.8586 37.6075 29.8855 37.4731C29.9146 37.3275 29.9688 37.1474 30.0701 36.9565C30.1715 36.7651 30.2932 36.6136 30.4091 36.4981L33.2503 39.2995ZM33.8664 37.7742L33.8664 37.3709L29.8505 37.3898L29.8505 37.7931L33.8664 37.7742ZM33.8664 37.3709C33.8664 36.7458 33.592 36.2958 33.4614 36.1073C33.3009 35.8753 33.0832 35.6481 32.8119 35.467L30.5595 38.7752C30.3746 38.6518 30.2433 38.511 30.1475 38.3726C30.0952 38.2971 30.0304 38.189 29.9744 38.0476C29.9212 37.9135 29.8505 37.6854 29.8505 37.3898L33.8664 37.3709ZM35.6491 26.355C35.0934 26.0773 34.39 26.0209 33.7368 26.3223C33.0935 26.6192 32.6802 27.1806 32.5306 27.7798L36.4286 28.7195C36.3079 29.2034 35.9666 29.6784 35.4168 29.9321C34.8572 30.1904 34.2691 30.1339 33.8286 29.9138L35.6491 26.355ZM33.0573 26.8506C32.7535 27.1544 32.563 27.5277 32.485 27.9175C32.4545 28.0699 32.4474 28.1948 32.4449 28.257C32.4425 28.3158 32.4429 28.3711 32.4429 28.3743L36.4588 28.3554C36.4588 28.3298 36.4591 28.3599 36.4576 28.3962C36.456 28.4359 36.4507 28.541 36.4238 28.6754C36.3947 28.8211 36.3405 29.0009 36.2395 29.1916C36.1383 29.3825 36.017 29.5336 35.902 29.6487L33.0573 26.8506ZM32.4429 28.3743L32.4429 28.7776L36.4588 28.7587L36.4588 28.3554L32.4429 28.3743ZM32.4429 28.7776C32.4429 29.3177 32.6379 29.742 32.8103 30.0101C32.9859 30.2832 33.2203 30.5253 33.4974 30.7102L35.7498 27.4021C35.9406 27.5294 36.0886 27.6851 36.1994 27.8574C36.3069 28.0246 36.4588 28.3337 36.4588 28.7587L32.4429 28.7776ZM33.9324 30.9292C35.1277 31.3582 35.7534 32.7109 35.3065 33.8973L39.0677 35.2756C40.2916 32.0262 38.6129 28.367 35.3149 27.1831L33.9324 30.9292ZM35.2948 33.9294C35.0694 34.5603 34.5728 35.0491 33.9366 35.2819L35.3107 39.018C37.0363 38.3866 38.4407 37.0321 39.0795 35.2435L35.2948 33.9294ZM33.727 35.3723C33.4226 35.5243 33.0532 35.7881 32.7813 36.23C32.5118 36.6681 32.4429 37.111 32.4429 37.4474L36.4588 37.4285C36.4588 37.6209 36.4186 37.9486 36.2067 38.2931C35.9924 38.6414 35.7094 38.8331 35.5203 38.9276L33.727 35.3723ZM32.4429 37.4474L32.4429 37.8507L36.4588 37.8318L36.4588 37.4285L32.4429 37.4474ZM32.4429 37.8507C32.4429 38.2342 32.5406 38.7148 32.8636 39.1589C33.198 39.6187 33.6648 39.8882 34.125 40.0031L35.1223 36.1402C35.4673 36.2263 35.8476 36.4382 36.1244 36.8188C36.3898 37.1837 36.4588 37.5635 36.4588 37.8318L32.4429 37.8507ZM34.6141 40.0631C34.6167 40.0631 34.7958 40.0668 35.0043 40.0321C35.1671 40.005 35.6975 39.9045 36.1595 39.4436L33.3183 36.6421C33.5474 36.4135 33.787 36.2874 33.9558 36.2185C34.1245 36.1496 34.2686 36.1189 34.3582 36.104C34.5235 36.0765 34.6593 36.0801 34.6332 36.0801L34.6141 40.0631ZM35.3398 39.9403C39.1596 38.734 41.212 34.6877 40.0253 30.9298L36.1925 32.1367C36.734 33.8514 35.7907 35.6235 34.1379 36.1455L35.3398 39.9403ZM40.0253 30.9298C39.3114 28.6691 37.5614 26.9581 35.3762 26.2429L34.1015 30.0259C35.0846 30.3477 35.8694 31.1138 36.1925 32.1367L40.0253 30.9298Z" fill="#1DFF29" mask="url(#path-6-inside-1_516_9915)"/>
</g>
<g filter="url(#filter5_f_516_9915)">
<mask id="path-8-inside-2_516_9915" fill="white">
<path d="M35.0556 34.0967C35.0556 33.0886 34.4507 32.743 33.2409 32.599C32.3768 32.4838 32.204 32.2534 32.204 31.8501C32.204 31.4468 32.4921 31.1876 33.0681 31.1876C33.5866 31.1876 33.8746 31.3604 34.0186 31.7925C34.0475 31.8789 34.1339 31.9365 34.2203 31.9365L34.6811 31.9365C34.7963 31.9365 34.8827 31.8501 34.8827 31.7349L34.8827 31.7061C34.7675 31.0724 34.249 30.5827 33.5866 30.5251L33.5866 29.8339C33.5866 29.7186 33.5002 29.6322 33.3562 29.6034L32.9241 29.6034C32.8089 29.6034 32.7225 29.6898 32.6937 29.8339L32.6937 30.4963C31.8295 30.6116 31.2823 31.1876 31.2823 31.9077C31.2823 32.8582 31.8584 33.2326 33.0681 33.3767C33.8746 33.5207 34.1339 33.6935 34.1339 34.1544C34.1339 34.6153 33.7306 34.9321 33.1834 34.9321C32.4344 34.9321 32.1752 34.6152 32.0888 34.1831C32.06 34.068 31.9736 34.0103 31.8872 34.0103L31.3975 34.0103C31.2823 34.0103 31.1959 34.0967 31.1959 34.212L31.1959 34.2408C31.3111 34.9608 31.772 35.4793 32.7225 35.6234L32.7225 36.3147C32.7225 36.4298 32.8089 36.5162 32.9529 36.5451L33.3849 36.5451C33.5002 36.5451 33.5866 36.4586 33.6154 36.3147L33.6154 35.6234C34.4795 35.4793 35.0556 34.8744 35.0556 34.0967Z"/>
<path d="M31.6857 37.1211C29.439 36.3147 28.2868 33.8088 29.1222 31.5908C29.5542 30.3811 30.5047 29.4594 31.6857 29.0273C31.8009 28.9698 31.8585 28.8833 31.8585 28.7393L31.8585 28.3361C31.8585 28.2208 31.8009 28.1344 31.6857 28.1057C31.6568 28.1057 31.5992 28.1057 31.5704 28.1344C28.8341 28.9985 27.3363 31.9077 28.2004 34.644C28.7189 36.257 29.9574 37.4956 31.5704 38.014C31.6857 38.0716 31.8009 38.014 31.8297 37.8988C31.8585 37.87 31.8585 37.8412 31.8585 37.7836L31.8585 37.3803C31.8585 37.2939 31.7721 37.1788 31.6857 37.1211ZM34.7389 28.1344C34.6236 28.0768 34.5084 28.1344 34.4796 28.2496C34.4508 28.2785 34.4508 28.3072 34.4508 28.3649L34.4508 28.7681C34.4508 28.8833 34.5372 28.9985 34.6236 29.0562C36.8703 29.8626 38.0225 32.3685 37.1871 34.5864C36.7551 35.7962 35.8045 36.7179 34.6236 37.1499C34.5084 37.2075 34.4508 37.2939 34.4508 37.438L34.4508 37.8412C34.4508 37.9565 34.5084 38.0429 34.6236 38.0716C34.6524 38.0716 34.71 38.0716 34.7389 38.0429C37.4752 37.1788 38.973 34.2696 38.1089 31.5332C37.5904 29.8914 36.323 28.6529 34.7389 28.1344Z"/>
</mask>
<path d="M35.0556 34.0967L33.0476 34.1062L35.0556 34.0967ZM33.2409 32.599L32.9641 34.5728L32.9782 34.5747L32.9924 34.5763L33.2409 32.599ZM33.0681 31.1876L33.0776 29.1961L33.0681 31.1876ZM34.0186 31.7925L32.1118 32.4256L32.112 32.4261L34.0186 31.7925ZM34.2203 31.9365L34.2108 33.928L34.2108 33.928L34.2203 31.9365ZM34.6811 31.9365L34.6906 29.945L34.6906 29.945L34.6811 31.9365ZM34.8827 31.7349L32.8748 31.7443L32.8748 31.7443L34.8827 31.7349ZM34.8827 31.7061L36.8907 31.6966L36.8907 31.5186L36.8589 31.3436L34.8827 31.7061ZM33.5866 30.5251L31.5786 30.5346L31.5786 32.3506L33.4019 32.5091L33.5866 30.5251ZM33.5866 29.8339L31.5786 29.8433L31.5786 29.8433L33.5866 29.8339ZM33.3562 29.6034L33.7624 27.6512L33.5661 27.6119L33.3657 27.6119L33.3562 29.6034ZM32.9241 29.6034L32.9146 31.5949L32.9146 31.5949L32.9241 29.6034ZM32.6937 29.8339L30.7242 29.4551L30.6857 29.6474L30.6857 29.8433L32.6937 29.8339ZM32.6937 30.4963L32.952 32.4701L34.7016 32.2367L34.7016 30.4869L32.6937 30.4963ZM31.2823 31.9077L29.2744 31.9172L31.2823 31.9077ZM33.0681 33.3767L33.4329 31.4166L33.3751 31.4063L33.3168 31.3994L33.0681 33.3767ZM33.1834 34.9321L33.1738 36.9236L33.1834 34.9321ZM32.0888 34.1831L34.0584 33.7867L34.0493 33.741L34.038 33.6958L32.0888 34.1831ZM31.8872 34.0103L31.8967 32.0188L31.8967 32.0188L31.8872 34.0103ZM31.3975 34.0103L31.388 36.0018L31.388 36.0018L31.3975 34.0103ZM31.1959 34.212L29.188 34.2214L29.188 34.2214L31.1959 34.212ZM31.1959 34.2408L29.188 34.2502L29.188 34.4071L29.2127 34.5619L31.1959 34.2408ZM32.7225 35.6234L34.7304 35.6139L34.7304 33.9116L33.035 33.6547L32.7225 35.6234ZM32.7225 36.3147L34.7304 36.3052L34.7304 36.3052L32.7225 36.3147ZM32.9529 36.5451L32.5466 38.4973L32.7429 38.5366L32.9434 38.5366L32.9529 36.5451ZM33.3849 36.5451L33.3945 34.5535L33.3945 34.5535L33.3849 36.5451ZM33.6154 36.3147L35.5848 36.6936L35.6234 36.5012L35.6234 36.3052L33.6154 36.3147ZM33.6154 35.6234L33.2917 33.6594L31.6075 33.9402L31.6075 35.6328L33.6154 35.6234ZM31.6857 37.1211L32.8119 35.467L32.608 35.3311L32.3769 35.2481L31.6857 37.1211ZM29.1222 31.5908L31.0028 32.28L31.0088 32.264L31.0145 32.2479L29.1222 31.5908ZM31.6857 29.0273L32.3727 30.8954L32.4801 30.8561L32.5823 30.805L31.6857 29.0273ZM31.8585 28.7393L29.8505 28.7487L29.8505 28.7487L31.8585 28.7393ZM31.8585 28.3361L33.8664 28.3266L33.8664 28.3266L31.8585 28.3361ZM31.6857 28.1057L32.1843 26.1742L31.9436 26.1141L31.6952 26.1141L31.6857 28.1057ZM31.5704 28.1344L32.1714 30.0318L32.6423 29.8831L32.991 29.5352L31.5704 28.1344ZM28.2004 34.644L26.284 35.2475L26.2871 35.2571L28.2004 34.644ZM31.5704 38.014L32.4807 36.2346L32.3437 36.1662L32.1977 36.1193L31.5704 38.014ZM31.8297 37.8988L30.409 36.4981L30.0148 36.8913L29.8806 37.429L31.8297 37.8988ZM31.8585 37.7836L29.8505 37.7931L31.8585 37.7836ZM31.8585 37.3803L33.8664 37.3709L33.8664 37.3709L31.8585 37.3803ZM34.7389 28.1344L33.8286 29.9138L33.9608 29.9799L34.1015 30.0259L34.7389 28.1344ZM34.4796 28.2496L35.9019 29.6487L36.2948 29.2559L36.4286 28.7195L34.4796 28.2496ZM34.4508 28.3649L36.4587 28.3554L36.4587 28.3554L34.4508 28.3649ZM34.4508 28.7681L32.4428 28.7776L32.4428 28.7776L34.4508 28.7681ZM34.6236 29.0562L33.4974 30.7102L33.7012 30.8462L33.9324 30.9292L34.6236 29.0562ZM37.1871 34.5864L35.3065 33.8973L35.3005 33.9133L35.2947 33.9294L37.1871 34.5864ZM34.6236 37.1499L33.9366 35.2819L33.8292 35.3212L33.7269 35.3723L34.6236 37.1499ZM34.4508 37.438L36.4587 37.4285L36.4587 37.4285L34.4508 37.438ZM34.4508 37.8412L32.4428 37.8507L32.4428 37.8507L34.4508 37.8412ZM34.6236 38.0716L34.125 40.0031L34.3657 40.0631L34.6141 40.0631L34.6236 38.0716ZM34.7389 38.0429L34.1379 36.1455L33.667 36.2942L33.3182 36.6421L34.7389 38.0429ZM38.1089 31.5332L36.1924 32.1367L36.1925 32.1367L38.1089 31.5332ZM37.0635 34.0873C37.0635 33.1389 36.7471 32.1412 35.8299 31.4424C35.0759 30.8679 34.1571 30.7011 33.4895 30.6217L32.9924 34.5763C33.2296 34.6046 33.3683 34.6353 33.4424 34.6576C33.5157 34.6797 33.4674 34.6765 33.374 34.6053C33.3247 34.5677 33.2689 34.5158 33.2157 34.4483C33.1623 34.3805 33.1219 34.3101 33.0936 34.2441C33.038 34.1144 33.0476 34.0463 33.0476 34.1062L37.0635 34.0873ZM33.5178 30.6252C33.3706 30.6056 33.3246 30.5898 33.3396 30.5946C33.3532 30.599 33.4969 30.6452 33.6725 30.7873C33.8732 30.9498 34.0357 31.1729 34.1295 31.4259C34.2114 31.6468 34.212 31.814 34.212 31.8406L30.1961 31.8595C30.1961 32.3686 30.3226 33.2288 31.1243 33.8778C31.7326 34.3702 32.4756 34.5076 32.9641 34.5728L33.5178 30.6252ZM34.212 31.8406C34.212 32.1473 34.078 32.594 33.6761 32.9154C33.5052 33.0522 33.3419 33.1183 33.2331 33.1491C33.127 33.1792 33.062 33.1791 33.0586 33.1791L33.0776 29.1961C32.5201 29.1961 31.7916 29.3177 31.164 29.8197C30.4741 30.3716 30.1961 31.1495 30.1961 31.8595L34.212 31.8406ZM33.0586 33.1791C33.1195 33.1791 32.8934 33.1939 32.604 33.0121C32.2725 32.804 32.1444 32.5231 32.1118 32.4256L35.9254 31.1594C35.7489 30.6298 35.4048 30.0465 34.7636 29.6439C34.1645 29.2678 33.5352 29.1961 33.0776 29.1961L33.0586 33.1791ZM32.112 32.4261C32.4224 33.3565 33.2969 33.928 34.2108 33.928L34.2298 29.945C34.9708 29.945 35.6725 30.4013 35.9252 31.1588L32.112 32.4261ZM34.2108 33.928L34.6716 33.928L34.6906 29.945L34.2298 29.945L34.2108 33.928ZM34.6716 33.928C35.9146 33.928 36.8907 32.9291 36.8907 31.7254L32.8748 31.7443C32.8748 30.7711 33.678 29.945 34.6906 29.945L34.6716 33.928ZM36.8907 31.7255L36.8907 31.6966L32.8748 31.7155L32.8748 31.7443L36.8907 31.7255ZM36.8589 31.3436C36.5886 29.8576 35.3603 28.6793 33.7713 28.5412L33.4019 32.5091C33.1377 32.4861 32.9464 32.2871 32.9066 32.0686L36.8589 31.3436ZM35.5945 30.5157L35.5945 29.8244L31.5786 29.8433L31.5786 30.5346L35.5945 30.5157ZM35.5945 29.8244C35.5945 28.4578 34.4985 27.7985 33.7624 27.6512L32.9499 31.5556C32.7299 31.5116 32.3971 31.3928 32.0962 31.0919C31.7711 30.7666 31.5786 30.3179 31.5786 29.8433L35.5945 29.8244ZM33.3657 27.6119L32.9336 27.6119L32.9146 31.5949L33.3467 31.5949L33.3657 27.6119ZM32.9336 27.6119C31.5247 27.6119 30.8671 28.7406 30.7242 29.4551L34.6631 30.2126C34.6205 30.4257 34.5037 30.7587 34.1988 31.0636C33.867 31.3954 33.4049 31.5949 32.9146 31.5949L32.9336 27.6119ZM30.6857 29.8433L30.6857 30.5058L34.7016 30.4869L34.7016 29.8244L30.6857 29.8433ZM32.4353 28.5226C30.7723 28.7444 29.2744 30.0067 29.2744 31.9172L33.2903 31.8983C33.2903 32.0628 33.2186 32.24 33.0967 32.3638C32.9843 32.4778 32.9021 32.4767 32.952 32.4701L32.4353 28.5226ZM29.2744 31.9172C29.2744 32.8418 29.5857 33.8177 30.4752 34.5119C31.2179 35.0916 32.1258 35.2714 32.8194 35.354L33.3168 31.3994C33.0892 31.3723 32.9581 31.3415 32.8917 31.3208C32.8264 31.3003 32.8757 31.3054 32.9679 31.3773C33.0161 31.4149 33.0701 31.4663 33.1216 31.5327C33.1734 31.5993 33.213 31.6688 33.2412 31.735C33.2971 31.8661 33.2903 31.9406 33.2903 31.8983L29.2744 31.9172ZM32.7033 35.3368C32.8646 35.3656 32.936 35.3853 32.9554 35.3914C32.9792 35.399 32.8712 35.3696 32.7216 35.2623C32.5455 35.1359 32.3614 34.9369 32.242 34.6674C32.1333 34.4223 32.1259 34.2254 32.1259 34.1638L36.1418 34.1449C36.1418 33.8529 36.102 33.4617 35.9196 33.05C35.7263 32.614 35.427 32.2763 35.0853 32.0311C34.5139 31.6213 33.8316 31.4878 33.4329 31.4166L32.7033 35.3368ZM32.1259 34.1638C32.1259 33.768 32.3189 33.4017 32.5996 33.1748C32.8518 32.9709 33.0885 32.9406 33.1929 32.9406L33.1738 36.9236C34.4278 36.9236 36.1418 36.0731 36.1418 34.1449L32.1259 34.1638ZM33.1929 32.9406C33.0816 32.9406 33.3329 32.9153 33.6406 33.1575C33.9675 33.4149 34.0464 33.7266 34.0584 33.7867L30.1191 34.5795C30.2176 35.0717 30.4693 35.7579 31.1347 36.2817C31.7808 36.7904 32.5362 36.9236 33.1738 36.9236L33.1929 32.9406ZM34.038 33.6958C33.8009 32.7465 32.9541 32.0188 31.8967 32.0188L31.8777 36.0018C30.9931 36.0018 30.3191 35.3894 30.1396 34.6705L34.038 33.6958ZM31.8967 32.0188L31.407 32.0188L31.388 36.0018L31.8777 36.0018L31.8967 32.0188ZM31.407 32.0188C30.1631 32.0188 29.188 33.0186 29.188 34.2214L33.2039 34.2025C33.2039 35.1748 32.4016 36.0018 31.388 36.0018L31.407 32.0188ZM29.188 34.2214L29.188 34.2502L33.2039 34.2314L33.2039 34.2025L29.188 34.2214ZM29.2127 34.5619C29.3249 35.2634 29.6315 35.9945 30.2485 36.5847C30.8599 37.1695 31.6267 37.4734 32.41 37.5921L33.035 33.6547C32.9497 33.6417 32.9223 33.6274 32.9335 33.6325C32.9477 33.6388 32.9915 33.6618 33.0434 33.7114C33.0958 33.7616 33.1338 33.8173 33.1574 33.8656C33.1796 33.911 33.1814 33.934 33.1791 33.9197L29.2127 34.5619ZM30.7145 35.6328L30.7145 36.3241L34.7304 36.3052L34.7304 35.6139L30.7145 35.6328ZM30.7145 36.3241C30.7145 37.691 31.811 38.35 32.5466 38.4973L33.3591 34.5928C33.5791 34.6369 33.9118 34.7556 34.2127 35.0564C34.5378 35.3815 34.7304 35.8303 34.7304 36.3052L30.7145 36.3241ZM32.9434 38.5366L33.3754 38.5366L33.3945 34.5535L32.9624 34.5535L32.9434 38.5366ZM33.3754 38.5366C34.7841 38.5366 35.4418 37.4082 35.5848 36.6936L31.646 35.9357C31.6887 35.7225 31.8055 35.3895 32.1104 35.0847C32.4421 34.753 32.9042 34.5535 33.3945 34.5535L33.3754 38.5366ZM35.6234 36.3052L35.6234 35.6139L31.6075 35.6328L31.6075 36.3241L35.6234 36.3052ZM33.9391 37.5873C35.5912 37.3119 37.0635 36.0142 37.0635 34.0873L33.0476 34.1062C33.0476 34.0539 33.0579 33.9866 33.0868 33.9146C33.1154 33.8431 33.1558 33.7836 33.1982 33.7387C33.2847 33.6473 33.3433 33.6508 33.2917 33.6594L33.9391 37.5873ZM32.3769 35.2481C31.1816 34.819 30.5559 33.4664 31.0028 32.28L27.2416 30.9017C26.0177 34.1511 27.6963 37.8103 30.9944 38.9941L32.3769 35.2481ZM31.0145 32.2479C31.2398 31.617 31.7365 31.1282 32.3727 30.8954L30.9986 27.1593C29.273 27.7906 27.8686 29.1452 27.2298 30.9338L31.0145 32.2479ZM32.5823 30.805C32.8867 30.6529 33.256 30.3892 33.5279 29.9473C33.7975 29.5092 33.8664 29.0663 33.8664 28.7298L29.8505 28.7487C29.8505 28.5564 29.8907 28.2287 30.1026 27.8842C30.3169 27.5359 30.5999 27.3442 30.789 27.2497L32.5823 30.805ZM33.8664 28.7298L33.8664 28.3266L29.8505 28.3455L29.8505 28.7487L33.8664 28.7298ZM33.8664 28.3266C33.8664 27.9431 33.7687 27.4625 33.4457 27.0184C33.1113 26.5585 32.6445 26.289 32.1843 26.1742L31.187 30.0371C30.842 29.951 30.4617 29.7391 30.1849 29.3585C29.9195 28.9936 29.8505 28.6138 29.8505 28.3455L33.8664 28.3266ZM31.6952 26.1141C31.6925 26.1141 31.5135 26.1105 31.3049 26.1452C31.1422 26.1723 30.6118 26.2728 30.1498 26.7337L32.991 29.5352C32.7619 29.7638 32.5223 29.8899 32.3535 29.9588C32.1847 30.0277 32.0407 30.0584 31.9511 30.0733C31.7858 30.1008 31.6499 30.0972 31.6761 30.0972L31.6952 26.1141ZM30.9695 26.237C27.1497 27.4433 25.0973 31.4895 26.284 35.2475L30.1168 34.0406C29.5753 32.3259 30.5185 30.5537 32.1714 30.0318L30.9695 26.237ZM26.2871 35.2571C26.9995 37.4734 28.7131 39.192 30.9432 39.9088L32.1977 36.1193C31.2018 35.7991 30.4383 35.0406 30.1138 34.031L26.2871 35.2571ZM30.6602 39.7934C31.2159 40.0711 31.9193 40.1276 32.5725 39.8261C33.2158 39.5292 33.6291 38.9678 33.7787 38.3686L29.8806 37.429C30.0014 36.945 30.3427 36.47 30.8925 36.2163C31.452 35.9581 32.0402 36.0145 32.4807 36.2346L30.6602 39.7934ZM33.2503 39.2995C33.5557 38.9948 33.7463 38.6206 33.8243 38.231C33.8548 38.0786 33.8619 37.9537 33.8644 37.8915C33.8667 37.8327 33.8664 37.7774 33.8664 37.7742L29.8505 37.7931C29.8505 37.8187 29.8502 37.7886 29.8517 37.7523C29.8533 37.7126 29.8585 37.6075 29.8854 37.4731C29.9146 37.3275 29.9688 37.1474 30.07 36.9565C30.1715 36.7651 30.2932 36.6136 30.409 36.4981L33.2503 39.2995ZM33.8664 37.7742L33.8664 37.3709L29.8505 37.3898L29.8505 37.7931L33.8664 37.7742ZM33.8664 37.3709C33.8664 36.7458 33.592 36.2958 33.4614 36.1073C33.3008 35.8753 33.0832 35.6481 32.8119 35.467L30.5595 38.7752C30.3745 38.6518 30.2433 38.511 30.1475 38.3726C30.0952 38.2971 30.0304 38.189 29.9744 38.0476C29.9212 37.9135 29.8505 37.6854 29.8505 37.3898L33.8664 37.3709ZM35.6491 26.355C35.0934 26.0773 34.39 26.0209 33.7368 26.3223C33.0934 26.6192 32.6801 27.1806 32.5306 27.7798L36.4286 28.7195C36.3079 29.2034 35.9666 29.6784 35.4168 29.9321C34.8572 30.1904 34.2691 30.1339 33.8286 29.9138L35.6491 26.355ZM33.0573 26.8506C32.7535 27.1544 32.563 27.5277 32.485 27.9175C32.4545 28.0699 32.4474 28.1948 32.4449 28.257C32.4425 28.3158 32.4428 28.3711 32.4428 28.3743L36.4587 28.3554C36.4587 28.3298 36.4591 28.3599 36.4576 28.3962C36.456 28.4359 36.4507 28.541 36.4238 28.6754C36.3947 28.8211 36.3405 29.0009 36.2394 29.1916C36.1383 29.3825 36.017 29.5336 35.9019 29.6487L33.0573 26.8506ZM32.4428 28.3743L32.4428 28.7776L36.4587 28.7587L36.4587 28.3554L32.4428 28.3743ZM32.4428 28.7776C32.4428 29.3177 32.6379 29.742 32.8103 30.0101C32.9858 30.2832 33.2203 30.5253 33.4974 30.7102L35.7498 27.4021C35.9405 27.5294 36.0886 27.6851 36.1993 27.8574C36.3069 28.0246 36.4587 28.3337 36.4587 28.7587L32.4428 28.7776ZM33.9324 30.9292C35.1277 31.3582 35.7534 32.7109 35.3065 33.8973L39.0677 35.2756C40.2915 32.0262 38.6129 28.367 35.3149 27.1831L33.9324 30.9292ZM35.2947 33.9294C35.0694 34.5603 34.5728 35.0491 33.9366 35.2819L35.3107 39.018C37.0363 38.3866 38.4407 37.0321 39.0795 35.2435L35.2947 33.9294ZM33.7269 35.3723C33.4226 35.5243 33.0532 35.7881 32.7813 36.23C32.5118 36.6681 32.4428 37.111 32.4428 37.4474L36.4587 37.4285C36.4587 37.6209 36.4186 37.9486 36.2066 38.2931C35.9924 38.6414 35.7094 38.8331 35.5203 38.9276L33.7269 35.3723ZM32.4428 37.4474L32.4428 37.8507L36.4587 37.8318L36.4587 37.4285L32.4428 37.4474ZM32.4428 37.8507C32.4428 38.2342 32.5406 38.7148 32.8636 39.1589C33.198 39.6187 33.6648 39.8882 34.125 40.0031L35.1222 36.1402C35.4672 36.2263 35.8476 36.4382 36.1244 36.8188C36.3898 37.1837 36.4587 37.5635 36.4587 37.8318L32.4428 37.8507ZM34.6141 40.0631C34.6167 40.0631 34.7958 40.0668 35.0043 40.0321C35.1671 40.005 35.6975 39.9045 36.1595 39.4436L33.3182 36.6421C33.5474 36.4135 33.787 36.2874 33.9558 36.2185C34.1245 36.1496 34.2686 36.1189 34.3581 36.104C34.5235 36.0765 34.6593 36.0801 34.6331 36.0801L34.6141 40.0631ZM35.3398 39.9403C39.1596 38.734 41.212 34.6877 40.0253 30.9298L36.1925 32.1367C36.7339 33.8514 35.7907 35.6235 34.1379 36.1455L35.3398 39.9403ZM40.0253 30.9298C39.3114 28.6691 37.5614 26.9581 35.3762 26.2429L34.1015 30.0259C35.0846 30.3477 35.8694 31.1138 36.1924 32.1367L40.0253 30.9298Z" fill="#1DFF29" mask="url(#path-8-inside-2_516_9915)"/>
</g>
<g filter="url(#filter6_f_516_9915)">
<mask id="path-10-inside-3_516_9915" fill="white">
<path d="M35.0556 34.0967C35.0556 33.0886 34.4507 32.743 33.2409 32.599C32.3768 32.4838 32.204 32.2534 32.204 31.8501C32.204 31.4468 32.4921 31.1876 33.0681 31.1876C33.5866 31.1876 33.8746 31.3604 34.0186 31.7925C34.0475 31.8789 34.1339 31.9365 34.2203 31.9365L34.6811 31.9365C34.7963 31.9365 34.8827 31.8501 34.8827 31.7349L34.8827 31.7061C34.7675 31.0724 34.249 30.5827 33.5866 30.5251L33.5866 29.8339C33.5866 29.7186 33.5002 29.6322 33.3562 29.6034L32.9241 29.6034C32.8089 29.6034 32.7225 29.6898 32.6937 29.8339L32.6937 30.4963C31.8295 30.6116 31.2823 31.1876 31.2823 31.9077C31.2823 32.8582 31.8584 33.2326 33.0681 33.3767C33.8746 33.5207 34.1339 33.6935 34.1339 34.1544C34.1339 34.6153 33.7306 34.9321 33.1834 34.9321C32.4344 34.9321 32.1752 34.6152 32.0888 34.1831C32.06 34.068 31.9736 34.0103 31.8872 34.0103L31.3975 34.0103C31.2823 34.0103 31.1959 34.0967 31.1959 34.212L31.1959 34.2408C31.3111 34.9608 31.772 35.4793 32.7225 35.6234L32.7225 36.3147C32.7225 36.4298 32.8089 36.5162 32.9529 36.5451L33.3849 36.5451C33.5002 36.5451 33.5866 36.4586 33.6154 36.3147L33.6154 35.6234C34.4795 35.4793 35.0556 34.8744 35.0556 34.0967Z"/>
<path d="M31.6857 37.1211C29.439 36.3147 28.2868 33.8088 29.1222 31.5908C29.5542 30.3811 30.5047 29.4594 31.6857 29.0273C31.8009 28.9698 31.8585 28.8833 31.8585 28.7393L31.8585 28.3361C31.8585 28.2208 31.8009 28.1344 31.6857 28.1057C31.6568 28.1057 31.5992 28.1057 31.5704 28.1344C28.8341 28.9985 27.3363 31.9077 28.2004 34.644C28.7189 36.257 29.9574 37.4956 31.5704 38.014C31.6857 38.0716 31.8009 38.014 31.8297 37.8988C31.8585 37.87 31.8585 37.8412 31.8585 37.7836L31.8585 37.3803C31.8585 37.2939 31.7721 37.1788 31.6857 37.1211ZM34.7389 28.1344C34.6236 28.0768 34.5084 28.1344 34.4796 28.2496C34.4508 28.2785 34.4508 28.3072 34.4508 28.3649L34.4508 28.7681C34.4508 28.8833 34.5372 28.9985 34.6236 29.0562C36.8703 29.8626 38.0225 32.3685 37.1871 34.5864C36.7551 35.7962 35.8045 36.7179 34.6236 37.1499C34.5084 37.2075 34.4508 37.2939 34.4508 37.438L34.4508 37.8412C34.4508 37.9565 34.5084 38.0429 34.6236 38.0716C34.6524 38.0716 34.71 38.0716 34.7389 38.0429C37.4752 37.1788 38.973 34.2696 38.1089 31.5332C37.5904 29.8914 36.323 28.6529 34.7389 28.1344Z"/>
</mask>
<path d="M35.0556 34.0967L33.0476 34.1062L35.0556 34.0967ZM33.2409 32.599L32.9641 34.5728L32.9782 34.5747L32.9924 34.5763L33.2409 32.599ZM33.0681 31.1876L33.0776 29.1961L33.0681 31.1876ZM34.0186 31.7925L32.1118 32.4256L32.112 32.4261L34.0186 31.7925ZM34.2203 31.9365L34.2108 33.928L34.2108 33.928L34.2203 31.9365ZM34.6811 31.9365L34.6906 29.945L34.6906 29.945L34.6811 31.9365ZM34.8827 31.7349L32.8748 31.7443L32.8748 31.7443L34.8827 31.7349ZM34.8827 31.7061L36.8907 31.6966L36.8907 31.5186L36.8589 31.3436L34.8827 31.7061ZM33.5866 30.5251L31.5786 30.5346L31.5786 32.3506L33.4019 32.5091L33.5866 30.5251ZM33.5866 29.8339L31.5786 29.8433L31.5786 29.8433L33.5866 29.8339ZM33.3562 29.6034L33.7624 27.6512L33.5661 27.6119L33.3657 27.6119L33.3562 29.6034ZM32.9241 29.6034L32.9146 31.5949L32.9146 31.5949L32.9241 29.6034ZM32.6937 29.8339L30.7242 29.4551L30.6857 29.6474L30.6857 29.8433L32.6937 29.8339ZM32.6937 30.4963L32.952 32.4701L34.7016 32.2367L34.7016 30.4869L32.6937 30.4963ZM31.2823 31.9077L29.2744 31.9172L31.2823 31.9077ZM33.0681 33.3767L33.4329 31.4166L33.3751 31.4063L33.3168 31.3994L33.0681 33.3767ZM33.1834 34.9321L33.1738 36.9236L33.1834 34.9321ZM32.0888 34.1831L34.0584 33.7867L34.0493 33.741L34.038 33.6958L32.0888 34.1831ZM31.8872 34.0103L31.8967 32.0188L31.8967 32.0188L31.8872 34.0103ZM31.3975 34.0103L31.388 36.0018L31.388 36.0018L31.3975 34.0103ZM31.1959 34.212L29.188 34.2214L29.188 34.2214L31.1959 34.212ZM31.1959 34.2408L29.188 34.2502L29.188 34.4071L29.2127 34.5619L31.1959 34.2408ZM32.7225 35.6234L34.7304 35.6139L34.7304 33.9116L33.035 33.6547L32.7225 35.6234ZM32.7225 36.3147L34.7304 36.3052L34.7304 36.3052L32.7225 36.3147ZM32.9529 36.5451L32.5466 38.4973L32.7429 38.5366L32.9434 38.5366L32.9529 36.5451ZM33.3849 36.5451L33.3945 34.5535L33.3945 34.5535L33.3849 36.5451ZM33.6154 36.3147L35.5848 36.6936L35.6234 36.5012L35.6234 36.3052L33.6154 36.3147ZM33.6154 35.6234L33.2917 33.6594L31.6075 33.9402L31.6075 35.6328L33.6154 35.6234ZM31.6857 37.1211L32.8119 35.467L32.608 35.3311L32.3769 35.2481L31.6857 37.1211ZM29.1222 31.5908L31.0028 32.28L31.0088 32.264L31.0145 32.2479L29.1222 31.5908ZM31.6857 29.0273L32.3727 30.8954L32.4801 30.8561L32.5823 30.805L31.6857 29.0273ZM31.8585 28.7393L29.8505 28.7487L29.8505 28.7487L31.8585 28.7393ZM31.8585 28.3361L33.8664 28.3266L33.8664 28.3266L31.8585 28.3361ZM31.6857 28.1057L32.1843 26.1742L31.9436 26.1141L31.6952 26.1141L31.6857 28.1057ZM31.5704 28.1344L32.1714 30.0318L32.6423 29.8831L32.991 29.5352L31.5704 28.1344ZM28.2004 34.644L26.284 35.2475L26.2871 35.2571L28.2004 34.644ZM31.5704 38.014L32.4807 36.2346L32.3437 36.1662L32.1977 36.1193L31.5704 38.014ZM31.8297 37.8988L30.409 36.4981L30.0148 36.8913L29.8806 37.429L31.8297 37.8988ZM31.8585 37.7836L29.8505 37.7931L31.8585 37.7836ZM31.8585 37.3803L33.8664 37.3709L33.8664 37.3709L31.8585 37.3803ZM34.7389 28.1344L33.8286 29.9138L33.9608 29.9799L34.1015 30.0259L34.7389 28.1344ZM34.4796 28.2496L35.9019 29.6487L36.2948 29.2559L36.4286 28.7195L34.4796 28.2496ZM34.4508 28.3649L36.4587 28.3554L36.4587 28.3554L34.4508 28.3649ZM34.4508 28.7681L32.4428 28.7776L32.4428 28.7776L34.4508 28.7681ZM34.6236 29.0562L33.4974 30.7102L33.7012 30.8462L33.9324 30.9292L34.6236 29.0562ZM37.1871 34.5864L35.3065 33.8973L35.3005 33.9133L35.2947 33.9294L37.1871 34.5864ZM34.6236 37.1499L33.9366 35.2819L33.8292 35.3212L33.7269 35.3723L34.6236 37.1499ZM34.4508 37.438L36.4587 37.4285L36.4587 37.4285L34.4508 37.438ZM34.4508 37.8412L32.4428 37.8507L32.4428 37.8507L34.4508 37.8412ZM34.6236 38.0716L34.125 40.0031L34.3657 40.0631L34.6141 40.0631L34.6236 38.0716ZM34.7389 38.0429L34.1379 36.1455L33.667 36.2942L33.3182 36.6421L34.7389 38.0429ZM38.1089 31.5332L36.1924 32.1367L36.1925 32.1367L38.1089 31.5332ZM37.0635 34.0873C37.0635 33.1389 36.7471 32.1412 35.8299 31.4424C35.0759 30.8679 34.1571 30.7011 33.4895 30.6217L32.9924 34.5763C33.2296 34.6046 33.3683 34.6353 33.4424 34.6576C33.5157 34.6797 33.4674 34.6765 33.374 34.6053C33.3247 34.5677 33.2689 34.5158 33.2157 34.4483C33.1623 34.3805 33.1219 34.3101 33.0936 34.2441C33.038 34.1144 33.0476 34.0463 33.0476 34.1062L37.0635 34.0873ZM33.5178 30.6252C33.3706 30.6056 33.3246 30.5898 33.3396 30.5946C33.3532 30.599 33.4969 30.6452 33.6725 30.7873C33.8732 30.9498 34.0357 31.1729 34.1295 31.4259C34.2114 31.6468 34.212 31.814 34.212 31.8406L30.1961 31.8595C30.1961 32.3686 30.3226 33.2288 31.1243 33.8778C31.7326 34.3702 32.4756 34.5076 32.9641 34.5728L33.5178 30.6252ZM34.212 31.8406C34.212 32.1473 34.078 32.594 33.6761 32.9154C33.5052 33.0522 33.3419 33.1183 33.2331 33.1491C33.127 33.1792 33.062 33.1791 33.0586 33.1791L33.0776 29.1961C32.5201 29.1961 31.7916 29.3177 31.164 29.8197C30.4741 30.3716 30.1961 31.1495 30.1961 31.8595L34.212 31.8406ZM33.0586 33.1791C33.1195 33.1791 32.8934 33.1939 32.604 33.0121C32.2725 32.804 32.1444 32.5231 32.1118 32.4256L35.9254 31.1594C35.7489 30.6298 35.4048 30.0465 34.7636 29.6439C34.1645 29.2678 33.5352 29.1961 33.0776 29.1961L33.0586 33.1791ZM32.112 32.4261C32.4224 33.3565 33.2969 33.928 34.2108 33.928L34.2298 29.945C34.9708 29.945 35.6725 30.4013 35.9252 31.1588L32.112 32.4261ZM34.2108 33.928L34.6716 33.928L34.6906 29.945L34.2298 29.945L34.2108 33.928ZM34.6716 33.928C35.9146 33.928 36.8907 32.9291 36.8907 31.7254L32.8748 31.7443C32.8748 30.7711 33.678 29.945 34.6906 29.945L34.6716 33.928ZM36.8907 31.7255L36.8907 31.6966L32.8748 31.7155L32.8748 31.7443L36.8907 31.7255ZM36.8589 31.3436C36.5886 29.8576 35.3603 28.6793 33.7713 28.5412L33.4019 32.5091C33.1377 32.4861 32.9464 32.2871 32.9066 32.0686L36.8589 31.3436ZM35.5945 30.5157L35.5945 29.8244L31.5786 29.8433L31.5786 30.5346L35.5945 30.5157ZM35.5945 29.8244C35.5945 28.4578 34.4985 27.7985 33.7624 27.6512L32.9499 31.5556C32.7299 31.5116 32.3971 31.3928 32.0962 31.0919C31.7711 30.7666 31.5786 30.3179 31.5786 29.8433L35.5945 29.8244ZM33.3657 27.6119L32.9336 27.6119L32.9146 31.5949L33.3467 31.5949L33.3657 27.6119ZM32.9336 27.6119C31.5247 27.6119 30.8671 28.7406 30.7242 29.4551L34.6631 30.2126C34.6205 30.4257 34.5037 30.7587 34.1988 31.0636C33.867 31.3954 33.4049 31.5949 32.9146 31.5949L32.9336 27.6119ZM30.6857 29.8433L30.6857 30.5058L34.7016 30.4869L34.7016 29.8244L30.6857 29.8433ZM32.4353 28.5226C30.7723 28.7444 29.2744 30.0067 29.2744 31.9172L33.2903 31.8983C33.2903 32.0628 33.2186 32.24 33.0967 32.3638C32.9843 32.4778 32.9021 32.4767 32.952 32.4701L32.4353 28.5226ZM29.2744 31.9172C29.2744 32.8418 29.5857 33.8177 30.4752 34.5119C31.2179 35.0916 32.1258 35.2714 32.8194 35.354L33.3168 31.3994C33.0892 31.3723 32.9581 31.3415 32.8917 31.3208C32.8264 31.3003 32.8757 31.3054 32.9679 31.3773C33.0161 31.4149 33.0701 31.4663 33.1216 31.5327C33.1734 31.5993 33.213 31.6688 33.2412 31.735C33.2971 31.8661 33.2903 31.9406 33.2903 31.8983L29.2744 31.9172ZM32.7033 35.3368C32.8646 35.3656 32.936 35.3853 32.9554 35.3914C32.9792 35.399 32.8712 35.3696 32.7216 35.2623C32.5455 35.1359 32.3614 34.9369 32.242 34.6674C32.1333 34.4223 32.1259 34.2254 32.1259 34.1638L36.1418 34.1449C36.1418 33.8529 36.102 33.4617 35.9196 33.05C35.7263 32.614 35.427 32.2763 35.0853 32.0311C34.5139 31.6213 33.8316 31.4878 33.4329 31.4166L32.7033 35.3368ZM32.1259 34.1638C32.1259 33.768 32.3189 33.4017 32.5996 33.1748C32.8518 32.9709 33.0885 32.9406 33.1929 32.9406L33.1738 36.9236C34.4278 36.9236 36.1418 36.0731 36.1418 34.1449L32.1259 34.1638ZM33.1929 32.9406C33.0816 32.9406 33.3329 32.9153 33.6406 33.1575C33.9675 33.4149 34.0464 33.7266 34.0584 33.7867L30.1191 34.5795C30.2176 35.0717 30.4693 35.7579 31.1347 36.2817C31.7808 36.7904 32.5362 36.9236 33.1738 36.9236L33.1929 32.9406ZM34.038 33.6958C33.8009 32.7465 32.9541 32.0188 31.8967 32.0188L31.8777 36.0018C30.9931 36.0018 30.3191 35.3894 30.1396 34.6705L34.038 33.6958ZM31.8967 32.0188L31.407 32.0188L31.388 36.0018L31.8777 36.0018L31.8967 32.0188ZM31.407 32.0188C30.1631 32.0188 29.188 33.0186 29.188 34.2214L33.2039 34.2025C33.2039 35.1748 32.4016 36.0018 31.388 36.0018L31.407 32.0188ZM29.188 34.2214L29.188 34.2502L33.2039 34.2314L33.2039 34.2025L29.188 34.2214ZM29.2127 34.5619C29.3249 35.2634 29.6315 35.9945 30.2485 36.5847C30.8599 37.1695 31.6267 37.4734 32.41 37.5921L33.035 33.6547C32.9497 33.6417 32.9223 33.6274 32.9335 33.6325C32.9477 33.6388 32.9915 33.6618 33.0434 33.7114C33.0958 33.7616 33.1338 33.8173 33.1574 33.8656C33.1796 33.911 33.1814 33.934 33.1791 33.9197L29.2127 34.5619ZM30.7145 35.6328L30.7145 36.3241L34.7304 36.3052L34.7304 35.6139L30.7145 35.6328ZM30.7145 36.3241C30.7145 37.691 31.811 38.35 32.5466 38.4973L33.3591 34.5928C33.5791 34.6369 33.9118 34.7556 34.2127 35.0564C34.5378 35.3815 34.7304 35.8303 34.7304 36.3052L30.7145 36.3241ZM32.9434 38.5366L33.3754 38.5366L33.3945 34.5535L32.9624 34.5535L32.9434 38.5366ZM33.3754 38.5366C34.7841 38.5366 35.4418 37.4082 35.5848 36.6936L31.646 35.9357C31.6887 35.7225 31.8055 35.3895 32.1104 35.0847C32.4421 34.753 32.9042 34.5535 33.3945 34.5535L33.3754 38.5366ZM35.6234 36.3052L35.6234 35.6139L31.6075 35.6328L31.6075 36.3241L35.6234 36.3052ZM33.9391 37.5873C35.5912 37.3119 37.0635 36.0142 37.0635 34.0873L33.0476 34.1062C33.0476 34.0539 33.0579 33.9866 33.0868 33.9146C33.1154 33.8431 33.1558 33.7836 33.1982 33.7387C33.2847 33.6473 33.3433 33.6508 33.2917 33.6594L33.9391 37.5873ZM32.3769 35.2481C31.1816 34.819 30.5559 33.4664 31.0028 32.28L27.2416 30.9017C26.0177 34.1511 27.6963 37.8103 30.9944 38.9941L32.3769 35.2481ZM31.0145 32.2479C31.2398 31.617 31.7365 31.1282 32.3727 30.8954L30.9986 27.1593C29.273 27.7906 27.8686 29.1452 27.2298 30.9338L31.0145 32.2479ZM32.5823 30.805C32.8867 30.6529 33.256 30.3892 33.5279 29.9473C33.7975 29.5092 33.8664 29.0663 33.8664 28.7298L29.8505 28.7487C29.8505 28.5564 29.8907 28.2287 30.1026 27.8842C30.3169 27.5359 30.5999 27.3442 30.789 27.2497L32.5823 30.805ZM33.8664 28.7298L33.8664 28.3266L29.8505 28.3455L29.8505 28.7487L33.8664 28.7298ZM33.8664 28.3266C33.8664 27.9431 33.7687 27.4625 33.4457 27.0184C33.1113 26.5585 32.6445 26.289 32.1843 26.1742L31.187 30.0371C30.842 29.951 30.4617 29.7391 30.1849 29.3585C29.9195 28.9936 29.8505 28.6138 29.8505 28.3455L33.8664 28.3266ZM31.6952 26.1141C31.6925 26.1141 31.5135 26.1105 31.3049 26.1452C31.1422 26.1723 30.6118 26.2728 30.1498 26.7337L32.991 29.5352C32.7619 29.7638 32.5223 29.8899 32.3535 29.9588C32.1847 30.0277 32.0407 30.0584 31.9511 30.0733C31.7858 30.1008 31.6499 30.0972 31.6761 30.0972L31.6952 26.1141ZM30.9695 26.237C27.1497 27.4433 25.0973 31.4895 26.284 35.2475L30.1168 34.0406C29.5753 32.3259 30.5185 30.5537 32.1714 30.0318L30.9695 26.237ZM26.2871 35.2571C26.9995 37.4734 28.7131 39.192 30.9432 39.9088L32.1977 36.1193C31.2018 35.7991 30.4383 35.0406 30.1138 34.031L26.2871 35.2571ZM30.6602 39.7934C31.2159 40.0711 31.9193 40.1276 32.5725 39.8261C33.2158 39.5292 33.6291 38.9678 33.7787 38.3686L29.8806 37.429C30.0014 36.945 30.3427 36.47 30.8925 36.2163C31.452 35.9581 32.0402 36.0145 32.4807 36.2346L30.6602 39.7934ZM33.2503 39.2995C33.5557 38.9948 33.7463 38.6206 33.8243 38.231C33.8548 38.0786 33.8619 37.9537 33.8644 37.8915C33.8667 37.8327 33.8664 37.7774 33.8664 37.7742L29.8505 37.7931C29.8505 37.8187 29.8502 37.7886 29.8517 37.7523C29.8533 37.7126 29.8585 37.6075 29.8854 37.4731C29.9146 37.3275 29.9688 37.1474 30.07 36.9565C30.1715 36.7651 30.2932 36.6136 30.409 36.4981L33.2503 39.2995ZM33.8664 37.7742L33.8664 37.3709L29.8505 37.3898L29.8505 37.7931L33.8664 37.7742ZM33.8664 37.3709C33.8664 36.7458 33.592 36.2958 33.4614 36.1073C33.3008 35.8753 33.0832 35.6481 32.8119 35.467L30.5595 38.7752C30.3745 38.6518 30.2433 38.511 30.1475 38.3726C30.0952 38.2971 30.0304 38.189 29.9744 38.0476C29.9212 37.9135 29.8505 37.6854 29.8505 37.3898L33.8664 37.3709ZM35.6491 26.355C35.0934 26.0773 34.39 26.0209 33.7368 26.3223C33.0934 26.6192 32.6801 27.1806 32.5306 27.7798L36.4286 28.7195C36.3079 29.2034 35.9666 29.6784 35.4168 29.9321C34.8572 30.1904 34.2691 30.1339 33.8286 29.9138L35.6491 26.355ZM33.0573 26.8506C32.7535 27.1544 32.563 27.5277 32.485 27.9175C32.4545 28.0699 32.4474 28.1948 32.4449 28.257C32.4425 28.3158 32.4428 28.3711 32.4428 28.3743L36.4587 28.3554C36.4587 28.3298 36.4591 28.3599 36.4576 28.3962C36.456 28.4359 36.4507 28.541 36.4238 28.6754C36.3947 28.8211 36.3405 29.0009 36.2394 29.1916C36.1383 29.3825 36.017 29.5336 35.9019 29.6487L33.0573 26.8506ZM32.4428 28.3743L32.4428 28.7776L36.4587 28.7587L36.4587 28.3554L32.4428 28.3743ZM32.4428 28.7776C32.4428 29.3177 32.6379 29.742 32.8103 30.0101C32.9858 30.2832 33.2203 30.5253 33.4974 30.7102L35.7498 27.4021C35.9405 27.5294 36.0886 27.6851 36.1993 27.8574C36.3069 28.0246 36.4587 28.3337 36.4587 28.7587L32.4428 28.7776ZM33.9324 30.9292C35.1277 31.3582 35.7534 32.7109 35.3065 33.8973L39.0677 35.2756C40.2915 32.0262 38.6129 28.367 35.3149 27.1831L33.9324 30.9292ZM35.2947 33.9294C35.0694 34.5603 34.5728 35.0491 33.9366 35.2819L35.3107 39.018C37.0363 38.3866 38.4407 37.0321 39.0795 35.2435L35.2947 33.9294ZM33.7269 35.3723C33.4226 35.5243 33.0532 35.7881 32.7813 36.23C32.5118 36.6681 32.4428 37.111 32.4428 37.4474L36.4587 37.4285C36.4587 37.6209 36.4186 37.9486 36.2066 38.2931C35.9924 38.6414 35.7094 38.8331 35.5203 38.9276L33.7269 35.3723ZM32.4428 37.4474L32.4428 37.8507L36.4587 37.8318L36.4587 37.4285L32.4428 37.4474ZM32.4428 37.8507C32.4428 38.2342 32.5406 38.7148 32.8636 39.1589C33.198 39.6187 33.6648 39.8882 34.125 40.0031L35.1222 36.1402C35.4672 36.2263 35.8476 36.4382 36.1244 36.8188C36.3898 37.1837 36.4587 37.5635 36.4587 37.8318L32.4428 37.8507ZM34.6141 40.0631C34.6167 40.0631 34.7958 40.0668 35.0043 40.0321C35.1671 40.005 35.6975 39.9045 36.1595 39.4436L33.3182 36.6421C33.5474 36.4135 33.787 36.2874 33.9558 36.2185C34.1245 36.1496 34.2686 36.1189 34.3581 36.104C34.5235 36.0765 34.6593 36.0801 34.6331 36.0801L34.6141 40.0631ZM35.3398 39.9403C39.1596 38.734 41.212 34.6877 40.0253 30.9298L36.1925 32.1367C36.7339 33.8514 35.7907 35.6235 34.1379 36.1455L35.3398 39.9403ZM40.0253 30.9298C39.3114 28.6691 37.5614 26.9581 35.3762 26.2429L34.1015 30.0259C35.0846 30.3477 35.8694 31.1138 36.1924 32.1367L40.0253 30.9298Z" fill="#1DFF29" mask="url(#path-10-inside-3_516_9915)"/>
</g>
<g filter="url(#filter7_f_516_9915)">
<mask id="path-12-inside-4_516_9915" fill="white">
<path d="M35.0556 34.0967C35.0556 33.0886 34.4507 32.743 33.2409 32.599C32.3768 32.4838 32.204 32.2534 32.204 31.8501C32.204 31.4468 32.4921 31.1876 33.0681 31.1876C33.5866 31.1876 33.8746 31.3604 34.0186 31.7925C34.0475 31.8789 34.1339 31.9365 34.2203 31.9365L34.6811 31.9365C34.7963 31.9365 34.8827 31.8501 34.8827 31.7349L34.8827 31.7061C34.7675 31.0724 34.249 30.5827 33.5866 30.5251L33.5866 29.8339C33.5866 29.7186 33.5002 29.6322 33.3562 29.6034L32.9241 29.6034C32.8089 29.6034 32.7225 29.6898 32.6937 29.8339L32.6937 30.4963C31.8295 30.6116 31.2823 31.1876 31.2823 31.9077C31.2823 32.8582 31.8584 33.2326 33.0681 33.3767C33.8746 33.5207 34.1339 33.6935 34.1339 34.1544C34.1339 34.6153 33.7306 34.9321 33.1834 34.9321C32.4344 34.9321 32.1752 34.6152 32.0888 34.1831C32.06 34.068 31.9736 34.0103 31.8872 34.0103L31.3975 34.0103C31.2823 34.0103 31.1959 34.0967 31.1959 34.212L31.1959 34.2408C31.3111 34.9608 31.772 35.4793 32.7225 35.6234L32.7225 36.3147C32.7225 36.4298 32.8089 36.5162 32.9529 36.5451L33.3849 36.5451C33.5002 36.5451 33.5866 36.4586 33.6154 36.3147L33.6154 35.6234C34.4795 35.4793 35.0556 34.8744 35.0556 34.0967Z"/>
<path d="M31.6857 37.1211C29.439 36.3147 28.2868 33.8088 29.1222 31.5908C29.5542 30.3811 30.5047 29.4594 31.6857 29.0273C31.8009 28.9698 31.8585 28.8833 31.8585 28.7393L31.8585 28.3361C31.8585 28.2208 31.8009 28.1344 31.6857 28.1057C31.6568 28.1057 31.5992 28.1057 31.5704 28.1344C28.8341 28.9985 27.3363 31.9077 28.2004 34.644C28.7189 36.257 29.9574 37.4956 31.5704 38.014C31.6857 38.0716 31.8009 38.014 31.8297 37.8988C31.8585 37.87 31.8585 37.8412 31.8585 37.7836L31.8585 37.3803C31.8585 37.2939 31.7721 37.1788 31.6857 37.1211ZM34.7389 28.1344C34.6236 28.0768 34.5084 28.1344 34.4796 28.2496C34.4508 28.2785 34.4508 28.3072 34.4508 28.3649L34.4508 28.7681C34.4508 28.8833 34.5372 28.9985 34.6236 29.0562C36.8703 29.8626 38.0225 32.3685 37.1871 34.5864C36.7551 35.7962 35.8045 36.7179 34.6236 37.1499C34.5084 37.2075 34.4508 37.2939 34.4508 37.438L34.4508 37.8412C34.4508 37.9565 34.5084 38.0429 34.6236 38.0716C34.6524 38.0716 34.71 38.0716 34.7389 38.0429C37.4752 37.1788 38.973 34.2696 38.1089 31.5332C37.5904 29.8914 36.323 28.6529 34.7389 28.1344Z"/>
</mask>
<path d="M35.0556 34.0967L34.0516 34.1015L35.0556 34.0967ZM33.2409 32.599L33.1025 33.5859L33.1096 33.5868L33.1167 33.5877L33.2409 32.599ZM33.0681 31.1876L33.0729 30.1918L33.0681 31.1876ZM34.0186 31.7925L33.0652 32.109L33.0653 32.1093L34.0186 31.7925ZM34.2203 31.9365L34.2155 32.9322L34.2155 32.9322L34.2203 31.9365ZM34.6811 31.9365L34.6859 30.9407L34.6859 30.9407L34.6811 31.9365ZM34.8827 31.7349L33.8788 31.7396L33.8788 31.7396L34.8827 31.7349ZM34.8827 31.7061L35.8867 31.7013L35.8867 31.6123L35.8708 31.5248L34.8827 31.7061ZM33.5866 30.5251L32.5826 30.5299L32.5826 31.4379L33.4942 31.5171L33.5866 30.5251ZM33.5866 29.8339L32.5826 29.8386L32.5826 29.8386L33.5866 29.8339ZM33.3562 29.6034L33.5593 28.6273L33.4612 28.6076L33.3609 28.6076L33.3562 29.6034ZM32.9241 29.6034L32.9194 30.5991L32.9194 30.5991L32.9241 29.6034ZM32.6937 29.8339L31.7089 29.6445L31.6897 29.7406L31.6897 29.8386L32.6937 29.8339ZM32.6937 30.4963L32.8228 31.4832L33.6976 31.3665L33.6976 30.4916L32.6937 30.4963ZM31.2823 31.9077L30.2783 31.9124L31.2823 31.9077ZM33.0681 33.3767L33.2505 32.3967L33.2216 32.3915L33.1925 32.388L33.0681 33.3767ZM33.1834 34.9321L33.1786 35.9278L33.1834 34.9321ZM32.0888 34.1831L33.0736 33.9849L33.069 33.9621L33.0634 33.9395L32.0888 34.1831ZM31.8872 34.0103L31.892 33.0146L31.8872 34.0103ZM31.3975 34.0103L31.3927 35.0061L31.3927 35.0061L31.3975 34.0103ZM31.1959 34.212L30.1919 34.2167L30.1919 34.2167L31.1959 34.212ZM31.1959 34.2408L30.1919 34.2455L30.1919 34.324L30.2043 34.4014L31.1959 34.2408ZM32.7225 35.6234L33.7265 35.6186L33.7265 34.7675L32.8787 34.639L32.7225 35.6234ZM32.7225 36.3147L33.7265 36.3099L33.7265 36.3099L32.7225 36.3147ZM32.9529 36.5451L32.7498 37.5212L32.8479 37.5408L32.9481 37.5408L32.9529 36.5451ZM33.3849 36.5451L33.3897 35.5493L33.3897 35.5493L33.3849 36.5451ZM33.6154 36.3147L34.6001 36.5041L34.6194 36.4079L34.6194 36.3099L33.6154 36.3147ZM33.6154 35.6234L33.4536 34.6414L32.6114 34.7818L32.6114 35.6281L33.6154 35.6234ZM31.6857 37.1211L32.2488 36.2941L32.1468 36.2261L32.0313 36.1846L31.6857 37.1211ZM29.1222 31.5908L30.0625 31.9354L30.0655 31.9274L30.0683 31.9193L29.1222 31.5908ZM31.6857 29.0273L32.0292 29.9614L32.0829 29.9417L32.134 29.9162L31.6857 29.0273ZM31.8585 28.7393L30.8545 28.744L30.8545 28.744L31.8585 28.7393ZM31.8585 28.3361L32.8625 28.3313L32.8625 28.3313L31.8585 28.3361ZM31.6857 28.1057L31.935 27.1399L31.8146 27.1099L31.6904 27.1099L31.6857 28.1057ZM31.5704 28.1344L31.8709 29.0831L32.1063 29.0088L32.2807 28.8348L31.5704 28.1344ZM28.2004 34.644L27.2422 34.9458L27.2437 34.9506L28.2004 34.644ZM31.5704 38.014L32.0255 37.1243L31.957 37.0901L31.884 37.0666L31.5704 38.014ZM31.8297 37.8988L31.1193 37.1984L30.9222 37.3951L30.8551 37.6639L31.8297 37.8988ZM31.8585 37.7836L30.8545 37.7884L31.8585 37.7836ZM31.8585 37.3803L32.8625 37.3756L31.8585 37.3803ZM34.7389 28.1344L34.2837 29.0241L34.3498 29.0571L34.4202 29.0802L34.7389 28.1344ZM34.4796 28.2496L35.1908 28.9492L35.3872 28.7528L35.4541 28.4846L34.4796 28.2496ZM34.4508 28.3649L35.4548 28.3602L35.4548 28.3602L34.4508 28.3649ZM34.4508 28.7681L33.4468 28.7728L33.4468 28.7728L34.4508 28.7681ZM34.6236 29.0562L34.0605 29.8832L34.1624 29.9512L34.278 29.9927L34.6236 29.0562ZM37.1871 34.5864L36.2468 34.2419L36.2438 34.2499L36.2409 34.2579L37.1871 34.5864ZM34.6236 37.1499L34.2801 36.2159L34.2264 36.2355L34.1753 36.2611L34.6236 37.1499ZM34.4508 37.438L35.4548 37.4333L34.4508 37.438ZM34.4508 37.8412L33.4468 37.8459L33.4468 37.8459L34.4508 37.8412ZM34.6236 38.0716L34.3743 39.0374L34.4946 39.0674L34.6189 39.0674L34.6236 38.0716ZM34.7389 38.0429L34.4384 37.0942L34.2029 37.1685L34.0285 37.3425L34.7389 38.0429ZM38.1089 31.5332L37.1507 31.835L37.1507 31.835L38.1089 31.5332ZM36.0595 34.092C36.0595 33.3658 35.8257 32.6977 35.2159 32.2331C34.6877 31.8307 34.0015 31.6861 33.3652 31.6103L33.1167 33.5877C33.6901 33.6559 33.9113 33.7562 33.9879 33.8146C34.0077 33.8296 34.0118 33.8367 34.0179 33.8509C34.0279 33.8742 34.0516 33.9455 34.0516 34.1015L36.0595 34.092ZM33.3794 31.6121C33.1978 31.5879 33.0883 31.562 33.027 31.5424C32.9649 31.5225 32.9855 31.5195 33.0355 31.5599C33.0623 31.5817 33.0934 31.6125 33.1227 31.6533C33.152 31.6941 33.173 31.7357 33.187 31.7734C33.2131 31.8439 33.208 31.8825 33.208 31.8453L31.2 31.8548C31.2 32.2101 31.2849 32.7194 31.7614 33.1052C32.1411 33.4126 32.6423 33.5245 33.1025 33.5859L33.3794 31.6121ZM33.208 31.8453C33.208 31.8623 33.2047 31.9107 33.1764 31.9745C33.1467 32.0413 33.1005 32.0996 33.0481 32.1415C32.9503 32.2197 32.9101 32.1834 33.0634 32.1834L33.0729 30.1918C32.6501 30.1918 32.1778 30.2851 31.792 30.5937C31.375 30.9272 31.2 31.399 31.2 31.8548L33.208 31.8453ZM33.0634 32.1834C33.1391 32.1834 33.1771 32.1899 33.1889 32.1926C33.1982 32.1946 33.1775 32.1912 33.1439 32.1701C33.1276 32.1598 33.1115 32.1475 33.0968 32.1335C33.0821 32.1196 33.0713 32.1066 33.064 32.0965C33.0498 32.0768 33.0539 32.0749 33.0652 32.109L34.972 31.4759C34.8478 31.1031 34.6217 30.7359 34.2237 30.486C33.8468 30.2493 33.4313 30.1918 33.0729 30.1918L33.0634 32.1834ZM33.0653 32.1093C33.2349 32.6177 33.7154 32.9322 34.2155 32.9322L34.225 30.9407C34.5524 30.9407 34.86 31.1401 34.9719 31.4757L33.0653 32.1093ZM34.2155 32.9322L34.6763 32.9322L34.6859 30.9407L34.225 30.9407L34.2155 32.9322ZM34.6763 32.9322C35.3555 32.9322 35.8867 32.3896 35.8867 31.7302L33.8788 31.7396C33.8788 31.544 33.9553 31.338 34.1141 31.1793C34.2732 31.0202 34.4831 30.9407 34.6859 30.9407L34.6763 32.9322ZM35.8867 31.7302L35.8867 31.7013L33.8788 31.7108L33.8788 31.7396L35.8867 31.7302ZM35.8708 31.5248C35.6781 30.465 34.8047 29.631 33.6789 29.5332L33.4942 31.5171C33.6934 31.5344 33.8569 31.6798 33.8947 31.8873L35.8708 31.5248ZM34.5906 30.5204L34.5906 29.8291L32.5826 29.8386L32.5826 30.5299L34.5906 30.5204ZM34.5906 29.8291C34.5906 29.0882 33.9993 28.7154 33.5593 28.6273L33.1531 30.5795C33.0791 30.5647 32.9415 30.5197 32.8108 30.389C32.668 30.2462 32.5826 30.0471 32.5826 29.8386L34.5906 29.8291ZM33.3609 28.6076L32.9289 28.6076L32.9194 30.5991L33.3514 30.5991L33.3609 28.6076ZM32.9289 28.6076C32.1668 28.6076 31.7948 29.2152 31.7089 29.6445L33.6784 30.0232C33.6643 30.0938 33.6203 30.2315 33.4876 30.3641C33.3416 30.5102 33.1357 30.5991 32.9194 30.5991L32.9289 28.6076ZM31.6897 29.8386L31.6897 30.501L33.6976 30.4916L33.6976 29.8291L31.6897 29.8386ZM32.5645 29.5095C31.3009 29.678 30.2783 30.5972 30.2783 31.9124L32.2863 31.903C32.2863 31.8052 32.3189 31.7318 32.3803 31.6695C32.4465 31.6023 32.5819 31.5153 32.8228 31.4832L32.5645 29.5095ZM30.2783 31.9124C30.2783 32.6124 30.506 33.2659 31.0984 33.7283C31.6173 34.1333 32.2945 34.288 32.9438 34.3654L33.1925 32.388C32.632 32.3213 32.4162 32.2168 32.3447 32.161C32.325 32.1456 32.3213 32.1384 32.3162 32.1265C32.3077 32.1065 32.2863 32.043 32.2863 31.903L30.2783 31.9124ZM32.8857 34.3567C33.0672 34.3891 33.1866 34.4179 33.2652 34.4428C33.3459 34.4684 33.3459 34.4784 33.3125 34.4545C33.2931 34.4406 33.2647 34.4168 33.2349 34.3811C33.2046 34.3448 33.1797 34.3044 33.1614 34.263C33.1255 34.1821 33.1299 34.1323 33.1299 34.1591L35.1378 34.1497C35.1378 33.946 35.1098 33.7018 35.0002 33.4543C34.8851 33.1947 34.7066 32.9912 34.4944 32.8389C34.1259 32.5746 33.6515 32.4683 33.2505 32.3967L32.8857 34.3567ZM33.1299 34.1591C33.1299 34.1273 33.1376 34.0836 33.1599 34.0382C33.1817 33.9937 33.2098 33.9632 33.2317 33.9454C33.2732 33.9119 33.2727 33.9363 33.1881 33.9363L33.1786 35.9278C34.0792 35.9278 35.1378 35.3442 35.1378 34.1497L33.1299 34.1591ZM33.1881 33.9363C33.0698 33.9363 33.0076 33.9236 32.9841 33.917C32.9641 33.9115 32.982 33.9133 33.0141 33.9386C33.0291 33.9504 33.0431 33.9642 33.0552 33.9789C33.0672 33.9935 33.0749 34.006 33.0793 34.0143C33.0873 34.0294 33.0816 34.0249 33.0736 33.9849L31.104 34.3813C31.1748 34.7354 31.3439 35.1722 31.7611 35.5007C32.1688 35.8217 32.6725 35.9278 33.1786 35.9278L33.1881 33.9363ZM33.0634 33.9395C32.9305 33.4072 32.4639 33.0146 31.892 33.0146L31.8824 35.0061C31.6991 35.0061 31.5203 34.9444 31.3769 34.8297C31.2302 34.7122 31.148 34.5621 31.1142 34.4268L33.0634 33.9395ZM31.892 33.0146L31.4023 33.0146L31.3927 35.0061L31.8824 35.0061L31.892 33.0146ZM31.4023 33.0146C30.7227 33.0146 30.1919 33.5577 30.1919 34.2167L32.1999 34.2073C32.1999 34.4027 32.1235 34.6086 31.9648 34.7674C31.8056 34.9265 31.5957 35.0061 31.3927 35.0061L31.4023 33.0146ZM30.1919 34.2167L30.1919 34.2455L32.1999 34.2361L32.1999 34.2072L30.1919 34.2167ZM30.2043 34.4014C30.2892 34.9321 30.5145 35.4525 30.9472 35.8664C31.3771 36.2776 31.937 36.5124 32.5662 36.6077L32.8787 34.639C32.5575 34.5903 32.4116 34.4938 32.3447 34.4298C32.2805 34.3684 32.2178 34.2695 32.1875 34.0802L30.2043 34.4014ZM31.7185 35.6281L31.7185 36.3194L33.7265 36.3099L33.7265 35.6186L31.7185 35.6281ZM31.7185 36.3194C31.7185 37.0604 32.3099 37.4331 32.7498 37.5212L33.156 35.5689C33.23 35.5838 33.3676 35.6287 33.4982 35.7593C33.6409 35.9021 33.7265 36.1013 33.7265 36.3099L31.7185 36.3194ZM32.9481 37.5408L33.3802 37.5408L33.3897 35.5493L32.9576 35.5493L32.9481 37.5408ZM33.3802 37.5408C34.1421 37.5408 34.5142 36.9334 34.6001 36.5041L32.6307 36.1252C32.6448 36.0546 32.6888 35.9169 32.8215 35.7843C32.9675 35.6382 33.1734 35.5493 33.3897 35.5493L33.3802 37.5408ZM34.6194 36.3099L34.6194 35.6186L32.6114 35.6281L32.6114 36.3194L34.6194 36.3099ZM33.7773 36.6053C35.0354 36.3956 36.0595 35.4443 36.0595 34.092L34.0516 34.1015C34.0516 34.3046 33.9237 34.563 33.4536 34.6414L33.7773 36.6053ZM32.0313 36.1846C30.3103 35.5668 29.4214 33.6376 30.0625 31.9354L28.1819 31.2463C27.1523 33.9799 28.5677 37.0625 31.34 38.0576L32.0313 36.1846ZM30.0683 31.9193C30.397 30.999 31.1206 30.2938 32.0292 29.9614L31.3421 28.0933C29.8888 28.625 28.7114 29.7631 28.176 31.2623L30.0683 31.9193ZM32.134 29.9162C32.315 29.8257 32.5213 29.6759 32.6716 29.4315C32.8208 29.1891 32.8625 28.9388 32.8625 28.7346L30.8545 28.744C30.8545 28.6838 30.8674 28.5488 30.959 28.4C31.0517 28.2492 31.1716 28.1714 31.2373 28.1385L32.134 29.9162ZM32.8625 28.7346L32.8625 28.3313L30.8545 28.3408L30.8545 28.744L32.8625 28.7346ZM32.8625 28.3313C32.8625 28.1108 32.8064 27.8453 32.6305 27.6034C32.4489 27.3537 32.1939 27.2045 31.935 27.1399L31.4363 29.0714C31.2927 29.0355 31.1241 28.944 31.0001 28.7735C30.8818 28.6108 30.8545 28.4461 30.8545 28.3408L32.8625 28.3313ZM31.6904 27.1099C31.6819 27.1099 31.5816 27.1081 31.4665 27.1272C31.3743 27.1426 31.0983 27.1964 30.8601 27.434L32.2807 28.8348C32.1697 28.9455 32.0544 29.0058 31.975 29.0383C31.8956 29.0707 31.829 29.0847 31.7896 29.0913C31.7177 29.1032 31.6606 29.1014 31.6809 29.1014L31.6904 27.1099ZM31.2699 27.1857C27.9919 28.2209 26.2168 31.6986 27.2422 34.9458L29.1586 34.3423C28.4558 32.1168 29.6763 29.7761 31.8709 29.0831L31.2699 27.1857ZM27.2437 34.9506C27.8592 36.8652 29.3353 38.3438 31.2568 38.9614L31.884 37.0666C30.5796 36.6474 29.5786 35.6488 29.1571 34.3375L27.2437 34.9506ZM31.1153 38.9037C31.422 39.057 31.8025 39.0852 32.1525 38.9237C32.4976 38.7644 32.7222 38.4621 32.8042 38.1337L30.8551 37.6639C30.9083 37.4507 31.061 37.2348 31.3125 37.1188C31.5688 37.0005 31.8341 37.0287 32.0255 37.1243L31.1153 38.9037ZM32.54 38.5992C32.6999 38.4396 32.7988 38.2453 32.8396 38.0415C32.8557 37.9608 32.8597 37.8934 32.8612 37.8567C32.8626 37.8217 32.8625 37.7877 32.8625 37.7789L30.8545 37.7884C30.8545 37.8084 30.8543 37.7996 30.8548 37.7871C30.8554 37.7728 30.8576 37.7253 30.8702 37.6626C30.8838 37.5943 30.9096 37.5083 30.9582 37.4166C31.0069 37.3248 31.065 37.2526 31.1193 37.1984L32.54 38.5992ZM32.8625 37.7789L32.8625 37.3756L30.8545 37.3851L30.8545 37.7884L32.8625 37.7789ZM32.8625 37.3756C32.8625 37.0415 32.7144 36.7913 32.633 36.6736C32.5365 36.5342 32.406 36.399 32.2488 36.2941L31.1226 37.9481C31.0517 37.9009 31.0077 37.852 30.976 37.8063C30.9579 37.7802 30.9323 37.7383 30.909 37.6795C30.8872 37.6244 30.8545 37.5221 30.8545 37.3851L32.8625 37.3756ZM35.194 27.2447C34.8873 27.0915 34.5068 27.0632 34.1568 27.2248C33.8117 27.384 33.5871 27.6863 33.5051 28.0147L35.4541 28.4846C35.4009 28.6977 35.2483 28.9136 34.9968 29.0297C34.7404 29.148 34.4752 29.1198 34.2837 29.0241L35.194 27.2447ZM33.7685 27.5501C33.6093 27.7092 33.5105 27.9031 33.4697 28.107C33.4535 28.1877 33.4495 28.2551 33.4481 28.2918C33.4467 28.3268 33.4468 28.3608 33.4468 28.3696L35.4548 28.3602C35.4548 28.3401 35.4549 28.3489 35.4544 28.3614C35.4539 28.3756 35.4517 28.4232 35.4391 28.4859C35.4254 28.5543 35.3997 28.6401 35.3512 28.7317C35.3026 28.8233 35.2447 28.8952 35.1908 28.9492L33.7685 27.5501ZM33.4468 28.3696L33.4468 28.7728L35.4548 28.7634L35.4548 28.3602L33.4468 28.3696ZM33.4468 28.7728C33.4468 29.0717 33.5552 29.3127 33.6575 29.4719C33.7615 29.6337 33.9003 29.7763 34.0605 29.8832L35.1867 28.2291C35.2605 28.2783 35.3129 28.3346 35.3521 28.3955C35.3896 28.454 35.4548 28.5797 35.4548 28.7634L33.4468 28.7728ZM34.278 29.9927C35.999 30.6104 36.8879 32.5397 36.2468 34.2419L38.1274 34.931C39.157 32.1973 37.7416 29.1148 34.9692 28.1197L34.278 29.9927ZM36.2409 34.2579C35.9122 35.1782 35.1887 35.8835 34.2801 36.2159L34.9671 38.084C36.4204 37.5523 37.5979 36.4141 38.1333 34.915L36.2409 34.2579ZM34.1753 36.2611C33.9943 36.3515 33.788 36.5014 33.6377 36.7458C33.4885 36.9882 33.4468 37.2385 33.4468 37.4427L35.4548 37.4333C35.4548 37.4934 35.4419 37.6285 35.3503 37.7773C35.2576 37.928 35.1377 38.0059 35.0719 38.0388L34.1753 36.2611ZM33.4468 37.4427L33.4468 37.8459L35.4548 37.8365L35.4548 37.4333L33.4468 37.4427ZM33.4468 37.8459C33.4468 38.0665 33.5029 38.332 33.6788 38.5739C33.8604 38.8236 34.1154 38.9727 34.3743 39.0374L34.8729 37.1059C35.0166 37.1418 35.1852 37.2333 35.3092 37.4038C35.4275 37.5665 35.4548 37.7312 35.4548 37.8365L33.4468 37.8459ZM34.6189 39.0674C34.6274 39.0674 34.7277 39.0692 34.8428 39.05C34.935 39.0347 35.211 38.9809 35.4492 38.7432L34.0285 37.3425C34.1395 37.2318 34.2548 37.1714 34.3343 37.139C34.4137 37.1066 34.4803 37.0926 34.5197 37.086C34.5915 37.0741 34.6487 37.0759 34.6284 37.0759L34.6189 39.0674ZM35.0393 38.9916C38.3174 37.9564 40.0925 34.4786 39.0671 31.2315L37.1507 31.835C37.8535 34.0605 36.6329 36.4011 34.4384 37.0942L35.0393 38.9916ZM39.0671 31.2315C38.4509 29.2803 36.9422 27.8055 35.0575 27.1887L34.4202 29.0802C35.7038 29.5003 36.7299 30.5026 37.1507 31.835L39.0671 31.2315Z" fill="#1DFF29" mask="url(#path-12-inside-4_516_9915)"/>
</g>
<g style="mix-blend-mode:color-dodge">
<mask id="path-14-inside-5_516_9915" fill="white">
<path d="M35.0556 34.0967C35.0556 33.0886 34.4507 32.743 33.2409 32.599C32.3768 32.4838 32.204 32.2534 32.204 31.8501C32.204 31.4468 32.4921 31.1876 33.0681 31.1876C33.5866 31.1876 33.8746 31.3604 34.0186 31.7925C34.0475 31.8789 34.1339 31.9365 34.2203 31.9365L34.6811 31.9365C34.7963 31.9365 34.8827 31.8501 34.8827 31.7349L34.8827 31.7061C34.7675 31.0724 34.249 30.5827 33.5866 30.5251L33.5866 29.8339C33.5866 29.7186 33.5002 29.6322 33.3562 29.6034L32.9241 29.6034C32.8089 29.6034 32.7225 29.6898 32.6937 29.8339L32.6937 30.4963C31.8295 30.6116 31.2823 31.1876 31.2823 31.9077C31.2823 32.8582 31.8584 33.2326 33.0681 33.3767C33.8746 33.5207 34.1339 33.6935 34.1339 34.1544C34.1339 34.6153 33.7306 34.9321 33.1834 34.9321C32.4344 34.9321 32.1752 34.6152 32.0888 34.1831C32.06 34.068 31.9736 34.0103 31.8872 34.0103L31.3975 34.0103C31.2823 34.0103 31.1959 34.0967 31.1959 34.212L31.1959 34.2408C31.3111 34.9608 31.772 35.4793 32.7225 35.6234L32.7225 36.3147C32.7225 36.4298 32.8089 36.5162 32.9529 36.5451L33.3849 36.5451C33.5002 36.5451 33.5866 36.4586 33.6154 36.3147L33.6154 35.6234C34.4795 35.4793 35.0556 34.8744 35.0556 34.0967Z"/>
<path d="M31.6857 37.1211C29.439 36.3147 28.2868 33.8088 29.1222 31.5908C29.5542 30.3811 30.5047 29.4594 31.6857 29.0273C31.8009 28.9698 31.8585 28.8833 31.8585 28.7393L31.8585 28.3361C31.8585 28.2208 31.8009 28.1344 31.6857 28.1057C31.6568 28.1057 31.5992 28.1057 31.5704 28.1344C28.8341 28.9985 27.3363 31.9077 28.2004 34.644C28.7189 36.257 29.9574 37.4956 31.5704 38.014C31.6857 38.0716 31.8009 38.014 31.8297 37.8988C31.8585 37.87 31.8585 37.8412 31.8585 37.7836L31.8585 37.3803C31.8585 37.2939 31.7721 37.1788 31.6857 37.1211ZM34.7389 28.1344C34.6236 28.0768 34.5084 28.1344 34.4796 28.2496C34.4508 28.2785 34.4508 28.3072 34.4508 28.3649L34.4508 28.7681C34.4508 28.8833 34.5372 28.9985 34.6236 29.0562C36.8703 29.8626 38.0225 32.3685 37.1871 34.5864C36.7551 35.7962 35.8045 36.7179 34.6236 37.1499C34.5084 37.2075 34.4508 37.2939 34.4508 37.438L34.4508 37.8412C34.4508 37.9565 34.5084 38.0429 34.6236 38.0716C34.6524 38.0716 34.71 38.0716 34.7389 38.0429C37.4752 37.1788 38.973 34.2696 38.1089 31.5332C37.5904 29.8914 36.323 28.6529 34.7389 28.1344Z"/>
</mask>
<path d="M35.0556 34.0967L34.0516 34.1015L35.0556 34.0967ZM33.2409 32.599L33.1025 33.5859L33.1096 33.5868L33.1167 33.5877L33.2409 32.599ZM33.0681 31.1876L33.0729 30.1918L33.0681 31.1876ZM34.0186 31.7925L33.0652 32.109L33.0653 32.1093L34.0186 31.7925ZM34.2203 31.9365L34.2155 32.9322L34.2155 32.9322L34.2203 31.9365ZM34.6811 31.9365L34.6859 30.9407L34.6859 30.9407L34.6811 31.9365ZM34.8827 31.7349L33.8788 31.7396L33.8788 31.7396L34.8827 31.7349ZM34.8827 31.7061L35.8867 31.7013L35.8867 31.6123L35.8708 31.5248L34.8827 31.7061ZM33.5866 30.5251L32.5826 30.5299L32.5826 31.4379L33.4942 31.5171L33.5866 30.5251ZM33.5866 29.8339L32.5826 29.8386L32.5826 29.8386L33.5866 29.8339ZM33.3562 29.6034L33.5593 28.6273L33.4612 28.6076L33.3609 28.6076L33.3562 29.6034ZM32.9241 29.6034L32.9194 30.5991L32.9194 30.5991L32.9241 29.6034ZM32.6937 29.8339L31.7089 29.6445L31.6897 29.7406L31.6897 29.8386L32.6937 29.8339ZM32.6937 30.4963L32.8228 31.4832L33.6976 31.3665L33.6976 30.4916L32.6937 30.4963ZM31.2823 31.9077L30.2783 31.9124L31.2823 31.9077ZM33.0681 33.3767L33.2505 32.3967L33.2216 32.3915L33.1925 32.388L33.0681 33.3767ZM33.1834 34.9321L33.1786 35.9278L33.1834 34.9321ZM32.0888 34.1831L33.0736 33.9849L33.069 33.9621L33.0634 33.9395L32.0888 34.1831ZM31.8872 34.0103L31.892 33.0146L31.8872 34.0103ZM31.3975 34.0103L31.3927 35.0061L31.3927 35.0061L31.3975 34.0103ZM31.1959 34.212L30.1919 34.2167L30.1919 34.2167L31.1959 34.212ZM31.1959 34.2408L30.1919 34.2455L30.1919 34.324L30.2043 34.4014L31.1959 34.2408ZM32.7225 35.6234L33.7265 35.6186L33.7265 34.7675L32.8787 34.639L32.7225 35.6234ZM32.7225 36.3147L33.7265 36.3099L33.7265 36.3099L32.7225 36.3147ZM32.9529 36.5451L32.7498 37.5212L32.8479 37.5408L32.9481 37.5408L32.9529 36.5451ZM33.3849 36.5451L33.3897 35.5493L33.3897 35.5493L33.3849 36.5451ZM33.6154 36.3147L34.6001 36.5041L34.6194 36.4079L34.6194 36.3099L33.6154 36.3147ZM33.6154 35.6234L33.4536 34.6414L32.6114 34.7818L32.6114 35.6281L33.6154 35.6234ZM31.6857 37.1211L32.2488 36.2941L32.1468 36.2261L32.0313 36.1846L31.6857 37.1211ZM29.1222 31.5908L30.0625 31.9354L30.0655 31.9274L30.0683 31.9193L29.1222 31.5908ZM31.6857 29.0273L32.0292 29.9614L32.0829 29.9417L32.134 29.9162L31.6857 29.0273ZM31.8585 28.7393L30.8545 28.744L30.8545 28.744L31.8585 28.7393ZM31.8585 28.3361L32.8625 28.3313L32.8625 28.3313L31.8585 28.3361ZM31.6857 28.1057L31.935 27.1399L31.8146 27.1099L31.6904 27.1099L31.6857 28.1057ZM31.5704 28.1344L31.8709 29.0831L32.1063 29.0088L32.2807 28.8348L31.5704 28.1344ZM28.2004 34.644L27.2422 34.9458L27.2437 34.9506L28.2004 34.644ZM31.5704 38.014L32.0255 37.1243L31.957 37.0901L31.884 37.0666L31.5704 38.014ZM31.8297 37.8988L31.1193 37.1984L30.9222 37.3951L30.8551 37.6639L31.8297 37.8988ZM31.8585 37.7836L30.8545 37.7884L31.8585 37.7836ZM31.8585 37.3803L32.8625 37.3756L31.8585 37.3803ZM34.7389 28.1344L34.2837 29.0241L34.3498 29.0571L34.4202 29.0802L34.7389 28.1344ZM34.4796 28.2496L35.1908 28.9492L35.3872 28.7528L35.4541 28.4846L34.4796 28.2496ZM34.4508 28.3649L35.4548 28.3602L35.4548 28.3602L34.4508 28.3649ZM34.4508 28.7681L33.4468 28.7728L33.4468 28.7728L34.4508 28.7681ZM34.6236 29.0562L34.0605 29.8832L34.1624 29.9512L34.278 29.9927L34.6236 29.0562ZM37.1871 34.5864L36.2468 34.2419L36.2438 34.2499L36.2409 34.2579L37.1871 34.5864ZM34.6236 37.1499L34.2801 36.2159L34.2264 36.2355L34.1753 36.2611L34.6236 37.1499ZM34.4508 37.438L35.4548 37.4333L34.4508 37.438ZM34.4508 37.8412L33.4468 37.8459L33.4468 37.8459L34.4508 37.8412ZM34.6236 38.0716L34.3743 39.0374L34.4946 39.0674L34.6189 39.0674L34.6236 38.0716ZM34.7389 38.0429L34.4384 37.0942L34.2029 37.1685L34.0285 37.3425L34.7389 38.0429ZM38.1089 31.5332L37.1507 31.835L37.1507 31.835L38.1089 31.5332ZM36.0595 34.092C36.0595 33.3658 35.8257 32.6977 35.2159 32.2331C34.6877 31.8307 34.0015 31.6861 33.3652 31.6103L33.1167 33.5877C33.6901 33.6559 33.9113 33.7562 33.9879 33.8146C34.0077 33.8296 34.0118 33.8367 34.0179 33.8509C34.0279 33.8742 34.0516 33.9455 34.0516 34.1015L36.0595 34.092ZM33.3794 31.6121C33.1978 31.5879 33.0883 31.562 33.027 31.5424C32.9649 31.5225 32.9855 31.5195 33.0355 31.5599C33.0623 31.5817 33.0934 31.6125 33.1227 31.6533C33.152 31.6941 33.173 31.7357 33.187 31.7734C33.2131 31.8439 33.208 31.8825 33.208 31.8453L31.2 31.8548C31.2 32.2101 31.2849 32.7194 31.7614 33.1052C32.1411 33.4126 32.6423 33.5245 33.1025 33.5859L33.3794 31.6121ZM33.208 31.8453C33.208 31.8623 33.2047 31.9107 33.1764 31.9745C33.1467 32.0413 33.1005 32.0996 33.0481 32.1415C32.9503 32.2197 32.9101 32.1834 33.0634 32.1834L33.0729 30.1918C32.6501 30.1918 32.1778 30.2851 31.792 30.5937C31.375 30.9272 31.2 31.399 31.2 31.8548L33.208 31.8453ZM33.0634 32.1834C33.1391 32.1834 33.1771 32.1899 33.1889 32.1926C33.1982 32.1946 33.1775 32.1912 33.1439 32.1701C33.1276 32.1598 33.1115 32.1475 33.0968 32.1335C33.0821 32.1196 33.0713 32.1066 33.064 32.0965C33.0498 32.0768 33.0539 32.0749 33.0652 32.109L34.972 31.4759C34.8478 31.1031 34.6217 30.7359 34.2237 30.486C33.8468 30.2493 33.4313 30.1918 33.0729 30.1918L33.0634 32.1834ZM33.0653 32.1093C33.2349 32.6177 33.7154 32.9322 34.2155 32.9322L34.225 30.9407C34.5524 30.9407 34.86 31.1401 34.9719 31.4757L33.0653 32.1093ZM34.2155 32.9322L34.6763 32.9322L34.6859 30.9407L34.225 30.9407L34.2155 32.9322ZM34.6763 32.9322C35.3555 32.9322 35.8867 32.3896 35.8867 31.7302L33.8788 31.7396C33.8788 31.544 33.9553 31.338 34.1141 31.1793C34.2732 31.0202 34.4831 30.9407 34.6859 30.9407L34.6763 32.9322ZM35.8867 31.7302L35.8867 31.7013L33.8788 31.7108L33.8788 31.7396L35.8867 31.7302ZM35.8708 31.5248C35.6781 30.465 34.8047 29.631 33.6789 29.5332L33.4942 31.5171C33.6934 31.5344 33.8569 31.6798 33.8947 31.8873L35.8708 31.5248ZM34.5906 30.5204L34.5906 29.8291L32.5826 29.8386L32.5826 30.5299L34.5906 30.5204ZM34.5906 29.8291C34.5906 29.0882 33.9993 28.7154 33.5593 28.6273L33.1531 30.5795C33.0791 30.5647 32.9415 30.5197 32.8108 30.389C32.668 30.2462 32.5826 30.0471 32.5826 29.8386L34.5906 29.8291ZM33.3609 28.6076L32.9289 28.6076L32.9194 30.5991L33.3514 30.5991L33.3609 28.6076ZM32.9289 28.6076C32.1668 28.6076 31.7948 29.2152 31.7089 29.6445L33.6784 30.0232C33.6643 30.0938 33.6203 30.2315 33.4876 30.3641C33.3416 30.5102 33.1357 30.5991 32.9194 30.5991L32.9289 28.6076ZM31.6897 29.8386L31.6897 30.501L33.6976 30.4916L33.6976 29.8291L31.6897 29.8386ZM32.5645 29.5095C31.3009 29.678 30.2783 30.5972 30.2783 31.9124L32.2863 31.903C32.2863 31.8052 32.3189 31.7318 32.3803 31.6695C32.4465 31.6023 32.5819 31.5153 32.8228 31.4832L32.5645 29.5095ZM30.2783 31.9124C30.2783 32.6124 30.506 33.2659 31.0984 33.7283C31.6173 34.1333 32.2945 34.288 32.9438 34.3654L33.1925 32.388C32.632 32.3213 32.4162 32.2168 32.3447 32.161C32.325 32.1456 32.3213 32.1384 32.3162 32.1265C32.3077 32.1065 32.2863 32.043 32.2863 31.903L30.2783 31.9124ZM32.8857 34.3567C33.0672 34.3891 33.1866 34.4179 33.2652 34.4428C33.3459 34.4684 33.3459 34.4784 33.3125 34.4545C33.2931 34.4406 33.2647 34.4168 33.2349 34.3811C33.2046 34.3448 33.1797 34.3044 33.1614 34.263C33.1255 34.1821 33.1299 34.1323 33.1299 34.1591L35.1378 34.1497C35.1378 33.946 35.1098 33.7018 35.0002 33.4543C34.8851 33.1947 34.7066 32.9912 34.4944 32.8389C34.1259 32.5746 33.6515 32.4683 33.2505 32.3967L32.8857 34.3567ZM33.1299 34.1591C33.1299 34.1273 33.1376 34.0836 33.1599 34.0382C33.1817 33.9937 33.2098 33.9632 33.2317 33.9454C33.2732 33.9119 33.2727 33.9363 33.1881 33.9363L33.1786 35.9278C34.0792 35.9278 35.1378 35.3442 35.1378 34.1497L33.1299 34.1591ZM33.1881 33.9363C33.0698 33.9363 33.0076 33.9236 32.9841 33.917C32.9641 33.9115 32.982 33.9133 33.0141 33.9386C33.0291 33.9504 33.0431 33.9642 33.0552 33.9789C33.0672 33.9935 33.0749 34.006 33.0793 34.0143C33.0873 34.0294 33.0816 34.0249 33.0736 33.9849L31.104 34.3813C31.1748 34.7354 31.3439 35.1722 31.7611 35.5007C32.1688 35.8217 32.6725 35.9278 33.1786 35.9278L33.1881 33.9363ZM33.0634 33.9395C32.9305 33.4072 32.4639 33.0146 31.892 33.0146L31.8824 35.0061C31.6991 35.0061 31.5203 34.9444 31.3769 34.8297C31.2302 34.7122 31.148 34.5621 31.1142 34.4268L33.0634 33.9395ZM31.892 33.0146L31.4023 33.0146L31.3927 35.0061L31.8824 35.0061L31.892 33.0146ZM31.4023 33.0146C30.7227 33.0146 30.1919 33.5577 30.1919 34.2167L32.1999 34.2073C32.1999 34.4027 32.1235 34.6086 31.9648 34.7674C31.8056 34.9265 31.5957 35.0061 31.3927 35.0061L31.4023 33.0146ZM30.1919 34.2167L30.1919 34.2455L32.1999 34.2361L32.1999 34.2072L30.1919 34.2167ZM30.2043 34.4014C30.2892 34.9321 30.5145 35.4525 30.9472 35.8664C31.3771 36.2776 31.937 36.5124 32.5662 36.6077L32.8787 34.639C32.5575 34.5903 32.4116 34.4938 32.3447 34.4298C32.2805 34.3684 32.2178 34.2695 32.1875 34.0802L30.2043 34.4014ZM31.7185 35.6281L31.7185 36.3194L33.7265 36.3099L33.7265 35.6186L31.7185 35.6281ZM31.7185 36.3194C31.7185 37.0604 32.3099 37.4331 32.7498 37.5212L33.156 35.5689C33.23 35.5838 33.3676 35.6287 33.4982 35.7593C33.6409 35.9021 33.7265 36.1013 33.7265 36.3099L31.7185 36.3194ZM32.9481 37.5408L33.3802 37.5408L33.3897 35.5493L32.9576 35.5493L32.9481 37.5408ZM33.3802 37.5408C34.1421 37.5408 34.5142 36.9334 34.6001 36.5041L32.6307 36.1252C32.6448 36.0546 32.6888 35.9169 32.8215 35.7843C32.9675 35.6382 33.1734 35.5493 33.3897 35.5493L33.3802 37.5408ZM34.6194 36.3099L34.6194 35.6186L32.6114 35.6281L32.6114 36.3194L34.6194 36.3099ZM33.7773 36.6053C35.0354 36.3956 36.0595 35.4443 36.0595 34.092L34.0516 34.1015C34.0516 34.3046 33.9237 34.563 33.4536 34.6414L33.7773 36.6053ZM32.0313 36.1846C30.3103 35.5668 29.4214 33.6376 30.0625 31.9354L28.1819 31.2463C27.1523 33.9799 28.5677 37.0625 31.34 38.0576L32.0313 36.1846ZM30.0683 31.9193C30.397 30.999 31.1206 30.2938 32.0292 29.9614L31.3421 28.0933C29.8888 28.625 28.7114 29.7631 28.176 31.2623L30.0683 31.9193ZM32.134 29.9162C32.315 29.8257 32.5213 29.6759 32.6716 29.4315C32.8208 29.1891 32.8625 28.9388 32.8625 28.7346L30.8545 28.744C30.8545 28.6838 30.8674 28.5488 30.959 28.4C31.0517 28.2492 31.1716 28.1714 31.2373 28.1385L32.134 29.9162ZM32.8625 28.7346L32.8625 28.3313L30.8545 28.3408L30.8545 28.744L32.8625 28.7346ZM32.8625 28.3313C32.8625 28.1108 32.8064 27.8453 32.6305 27.6034C32.4489 27.3537 32.1939 27.2045 31.935 27.1399L31.4363 29.0714C31.2927 29.0355 31.1241 28.944 31.0001 28.7735C30.8818 28.6108 30.8545 28.4461 30.8545 28.3408L32.8625 28.3313ZM31.6904 27.1099C31.6819 27.1099 31.5816 27.1081 31.4665 27.1272C31.3743 27.1426 31.0983 27.1964 30.8601 27.434L32.2807 28.8348C32.1697 28.9455 32.0544 29.0058 31.975 29.0383C31.8956 29.0707 31.829 29.0847 31.7896 29.0913C31.7177 29.1032 31.6606 29.1014 31.6809 29.1014L31.6904 27.1099ZM31.2699 27.1857C27.9919 28.2209 26.2168 31.6986 27.2422 34.9458L29.1586 34.3423C28.4558 32.1168 29.6763 29.7761 31.8709 29.0831L31.2699 27.1857ZM27.2437 34.9506C27.8592 36.8652 29.3353 38.3438 31.2568 38.9614L31.884 37.0666C30.5796 36.6474 29.5786 35.6488 29.1571 34.3375L27.2437 34.9506ZM31.1153 38.9037C31.422 39.057 31.8025 39.0852 32.1525 38.9237C32.4976 38.7644 32.7222 38.4621 32.8042 38.1337L30.8551 37.6639C30.9083 37.4507 31.061 37.2348 31.3125 37.1188C31.5688 37.0005 31.8341 37.0287 32.0255 37.1243L31.1153 38.9037ZM32.54 38.5992C32.6999 38.4396 32.7988 38.2453 32.8396 38.0415C32.8557 37.9608 32.8597 37.8934 32.8612 37.8567C32.8626 37.8217 32.8625 37.7877 32.8625 37.7789L30.8545 37.7884C30.8545 37.8084 30.8543 37.7996 30.8548 37.7871C30.8554 37.7728 30.8576 37.7253 30.8702 37.6626C30.8838 37.5943 30.9096 37.5083 30.9582 37.4166C31.0069 37.3248 31.065 37.2526 31.1193 37.1984L32.54 38.5992ZM32.8625 37.7789L32.8625 37.3756L30.8545 37.3851L30.8545 37.7884L32.8625 37.7789ZM32.8625 37.3756C32.8625 37.0415 32.7144 36.7913 32.633 36.6736C32.5365 36.5342 32.406 36.399 32.2488 36.2941L31.1226 37.9481C31.0517 37.9009 31.0077 37.852 30.976 37.8063C30.9579 37.7802 30.9323 37.7383 30.909 37.6795C30.8872 37.6244 30.8545 37.5221 30.8545 37.3851L32.8625 37.3756ZM35.194 27.2447C34.8873 27.0915 34.5068 27.0632 34.1568 27.2248C33.8117 27.384 33.5871 27.6863 33.5051 28.0147L35.4541 28.4846C35.4009 28.6977 35.2483 28.9136 34.9968 29.0297C34.7404 29.148 34.4752 29.1198 34.2837 29.0241L35.194 27.2447ZM33.7685 27.5501C33.6093 27.7092 33.5105 27.9031 33.4697 28.107C33.4535 28.1877 33.4495 28.2551 33.4481 28.2918C33.4467 28.3268 33.4468 28.3608 33.4468 28.3696L35.4548 28.3602C35.4548 28.3401 35.4549 28.3489 35.4544 28.3614C35.4539 28.3756 35.4517 28.4232 35.4391 28.4859C35.4254 28.5543 35.3997 28.6401 35.3512 28.7317C35.3026 28.8233 35.2447 28.8952 35.1908 28.9492L33.7685 27.5501ZM33.4468 28.3696L33.4468 28.7728L35.4548 28.7634L35.4548 28.3602L33.4468 28.3696ZM33.4468 28.7728C33.4468 29.0717 33.5552 29.3127 33.6575 29.4719C33.7615 29.6337 33.9003 29.7763 34.0605 29.8832L35.1867 28.2291C35.2605 28.2783 35.3129 28.3346 35.3521 28.3955C35.3896 28.454 35.4548 28.5797 35.4548 28.7634L33.4468 28.7728ZM34.278 29.9927C35.999 30.6104 36.8879 32.5397 36.2468 34.2419L38.1274 34.931C39.157 32.1973 37.7416 29.1148 34.9692 28.1197L34.278 29.9927ZM36.2409 34.2579C35.9122 35.1782 35.1887 35.8835 34.2801 36.2159L34.9671 38.084C36.4204 37.5523 37.5979 36.4141 38.1333 34.915L36.2409 34.2579ZM34.1753 36.2611C33.9943 36.3515 33.788 36.5014 33.6377 36.7458C33.4885 36.9882 33.4468 37.2385 33.4468 37.4427L35.4548 37.4333C35.4548 37.4934 35.4419 37.6285 35.3503 37.7773C35.2576 37.928 35.1377 38.0059 35.0719 38.0388L34.1753 36.2611ZM33.4468 37.4427L33.4468 37.8459L35.4548 37.8365L35.4548 37.4333L33.4468 37.4427ZM33.4468 37.8459C33.4468 38.0665 33.5029 38.332 33.6788 38.5739C33.8604 38.8236 34.1154 38.9727 34.3743 39.0374L34.8729 37.1059C35.0166 37.1418 35.1852 37.2333 35.3092 37.4038C35.4275 37.5665 35.4548 37.7312 35.4548 37.8365L33.4468 37.8459ZM34.6189 39.0674C34.6274 39.0674 34.7277 39.0692 34.8428 39.05C34.935 39.0347 35.211 38.9809 35.4492 38.7432L34.0285 37.3425C34.1395 37.2318 34.2548 37.1714 34.3343 37.139C34.4137 37.1066 34.4803 37.0926 34.5197 37.086C34.5915 37.0741 34.6487 37.0759 34.6284 37.0759L34.6189 39.0674ZM35.0393 38.9916C38.3174 37.9564 40.0925 34.4786 39.0671 31.2315L37.1507 31.835C37.8535 34.0605 36.6329 36.4011 34.4384 37.0942L35.0393 38.9916ZM39.0671 31.2315C38.4509 29.2803 36.9422 27.8055 35.0575 27.1887L34.4202 29.0802C35.7038 29.5003 36.7299 30.5026 37.1507 31.835L39.0671 31.2315Z" fill="#1DFF29" mask="url(#path-14-inside-5_516_9915)"/>
</g>
<defs>
<filter id="filter0_f_516_9915" x="0.0809708" y="0.00396729" width="66.0799" height="65.9279" filterUnits="userSpaceOnUse" color-interpolation-filters="sRGB">
<feFlood flood-opacity="0" result="BackgroundImageFix"/>
<feBlend mode="normal" in="SourceGraphic" in2="BackgroundImageFix" result="shape"/>
<feGaussianBlur stdDeviation="12.5" result="effect1_foregroundBlur_516_9915"/>
</filter>
<filter id="filter1_f_516_9915" x="10.081" y="10.004" width="46.0799" height="45.9279" filterUnits="userSpaceOnUse" color-interpolation-filters="sRGB">
<feFlood flood-opacity="0" result="BackgroundImageFix"/>
<feBlend mode="normal" in="SourceGraphic" in2="BackgroundImageFix" result="shape"/>
<feGaussianBlur stdDeviation="7.5" result="effect1_foregroundBlur_516_9915"/>
</filter>
<filter id="filter2_f_516_9915" x="15.081" y="15.004" width="36.0799" height="35.9279" filterUnits="userSpaceOnUse" color-interpolation-filters="sRGB">
<feFlood flood-opacity="0" result="BackgroundImageFix"/>
<feBlend mode="normal" in="SourceGraphic" in2="BackgroundImageFix" result="shape"/>
<feGaussianBlur stdDeviation="5" result="effect1_foregroundBlur_516_9915"/>
</filter>
<filter id="filter3_f_516_9915" x="20.081" y="20.004" width="26.0799" height="25.9279" filterUnits="userSpaceOnUse" color-interpolation-filters="sRGB">
<feFlood flood-opacity="0" result="BackgroundImageFix"/>
<feBlend mode="normal" in="SourceGraphic" in2="BackgroundImageFix" result="shape"/>
<feGaussianBlur stdDeviation="2.5" result="effect1_foregroundBlur_516_9915"/>
</filter>
<filter id="filter4_f_516_9915" x="2.95596" y="3.10565" width="60.3974" height="59.966" filterUnits="userSpaceOnUse" color-interpolation-filters="sRGB">
<feFlood flood-opacity="0" result="BackgroundImageFix"/>
<feBlend mode="normal" in="SourceGraphic" in2="BackgroundImageFix" result="shape"/>
<feGaussianBlur stdDeviation="12.5" result="effect1_foregroundBlur_516_9915"/>
</filter>
<filter id="filter5_f_516_9915" x="12.9559" y="13.1057" width="40.3974" height="39.966" filterUnits="userSpaceOnUse" color-interpolation-filters="sRGB">
<feFlood flood-opacity="0" result="BackgroundImageFix"/>
<feBlend mode="normal" in="SourceGraphic" in2="BackgroundImageFix" result="shape"/>
<feGaussianBlur stdDeviation="7.5" result="effect1_foregroundBlur_516_9915"/>
</filter>
<filter id="filter6_f_516_9915" x="17.9559" y="18.1057" width="30.3974" height="29.966" filterUnits="userSpaceOnUse" color-interpolation-filters="sRGB">
<feFlood flood-opacity="0" result="BackgroundImageFix"/>
<feBlend mode="normal" in="SourceGraphic" in2="BackgroundImageFix" result="shape"/>
<feGaussianBlur stdDeviation="5" result="effect1_foregroundBlur_516_9915"/>
</filter>
<filter id="filter7_f_516_9915" x="22.9559" y="23.1057" width="20.3974" height="19.966" filterUnits="userSpaceOnUse" color-interpolation-filters="sRGB">
<feFlood flood-opacity="0" result="BackgroundImageFix"/>
<feBlend mode="normal" in="SourceGraphic" in2="BackgroundImageFix" result="shape"/>
<feGaussianBlur stdDeviation="2.5" result="effect1_foregroundBlur_516_9915"/>
</filter>
</defs>
</svg>
