<svg width="16" height="16" viewBox="0 0 16 16" fill="currentColor" xmlns="http://www.w3.org/2000/svg">
<path d="M13.5 4.5H3.5C3.36739 4.5 3.24021 4.44732 3.14645 4.35355C3.05268 4.25979 3 4.13261 3 4C3 3.86739 3.05268 3.74021 3.14645 3.64645C3.24021 3.55268 3.36739 3.5 3.5 3.5H12C12.1326 3.5 12.2598 3.44732 12.3536 3.35355C12.4473 3.25979 12.5 3.13261 12.5 3C12.5 2.86739 12.4473 2.74021 12.3536 2.64645C12.2598 2.55268 12.1326 2.5 12 2.5H3.5C3.10218 2.5 2.72064 2.65804 2.43934 2.93934C2.15804 3.22064 2 3.60218 2 4V12C2 12.3978 2.15804 12.7794 2.43934 13.0607C2.72064 13.342 3.10218 13.5 3.5 13.5H13.5C13.7652 13.5 14.0196 13.3946 14.2071 13.2071C14.3946 13.0196 14.5 12.7652 14.5 12.5V5.5C14.5 5.23478 14.3946 4.98043 14.2071 4.79289C14.0196 4.60536 13.7652 4.5 13.5 4.5ZM13.5 12.5H3.5C3.36739 12.5 3.24021 12.4473 3.14645 12.3536C3.05268 12.2598 3 12.1326 3 12V5.41437C3.16055 5.47129 3.32966 5.50025 3.5 5.5H13.5V12.5ZM10.5 8.75C10.5 8.60166 10.544 8.45666 10.6264 8.33332C10.7088 8.20999 10.8259 8.11386 10.963 8.05709C11.1 8.00033 11.2508 7.98547 11.3963 8.01441C11.5418 8.04335 11.6754 8.11478 11.7803 8.21967C11.8852 8.32456 11.9566 8.4582 11.9856 8.60368C12.0145 8.74917 11.9997 8.89997 11.9429 9.03701C11.8861 9.17406 11.79 9.29119 11.6667 9.3736C11.5433 9.45601 11.3983 9.5 11.25 9.5C11.0511 9.5 10.8603 9.42098 10.7197 9.28033C10.579 9.13968 10.5 8.94891 10.5 8.75Z" />
</svg>
